<svg width="21" height="15" viewBox="0 0 21 15" fill="none" xmlns="http://www.w3.org/2000/svg">
<path d="M18.2581 1.74463C17.3065 1.76076 16.5161 2.59947 16.5645 3.55108C16.5806 4.08334 16.8387 4.53495 17.2258 4.8414C15.2258 7.51882 13.1935 7.7285 10.8387 3.29302C11.6774 2.87366 12.1452 1.80915 11.5323 0.744629C11.2419 0.2285 10.6452 -0.0295643 10.0484 0.00269373C10.0323 0.00269373 10.0323 0.00269373 10.0161 0.00269373C10.0161 0.00269373 10 0.00269373 9.98387 0.00269373C9.3871 -0.0134353 8.80645 0.2285 8.5 0.744629C7.8871 1.80915 8.35484 2.87366 9.19355 3.29302C6.83871 7.7285 4.80645 7.51882 2.80645 4.8414C3.19355 4.53495 3.45161 4.06721 3.46774 3.55108C3.5 2.59947 2.72581 1.76076 1.77419 1.74463C0.790323 1.7285 0 2.50269 0 3.48656C0 4.43818 0.774194 5.2285 1.74194 5.2285C1.80645 5.2285 1.8871 5.2285 1.95161 5.21237L2.6129 11.6962C2.66129 12.2124 3.09677 12.5995 3.6129 12.5995H16.4194C16.9355 12.5995 17.371 12.2124 17.4194 11.6962L18.0806 5.21237C18.1452 5.2285 18.2097 5.2285 18.2903 5.2285C19.2419 5.2285 20.0323 4.45431 20.0323 3.48656C20.0323 2.50269 19.2258 1.7285 18.2581 1.74463Z" fill="white"/>
<path d="M2.74194 14.2742C2.74194 13.8733 3.0669 13.5484 3.46775 13.5484H16.5323C16.9331 13.5484 17.2581 13.8733 17.2581 14.2742C17.2581 14.675 16.9331 15 16.5323 15H3.46775C3.0669 15 2.74194 14.675 2.74194 14.2742Z" fill="white"/>
</svg>
