<svg xmlns="http://www.w3.org/2000/svg" width="900" height="600" version="1.0" viewBox="-2002 0 4004 2004"><path fill="#006233" d="M2002 2337V-333h-4004v2670h4004z" class="fil0 str0"/><g fill="#fff" fill-rule="evenodd" stroke="#fff"><path stroke-width=".4" d="M1072 2780c-26 39-7 64 19 66 18 1 55-25 55-56l-10-6c5 16-1 21-13 32-23 21-71 23-51-36z" transform="matrix(2.0127 0 0 1.8314 -2491 -4041)"/><path d="M1277 2882c146 4 192-137 102-258l-8 13c5 56 14 112 15 170-18 20-44 13-49-10 1-32-10-58-23-83l-7 13c9 21 18 44 20 70-42 50-88 60-71-6-33 58 17 98 73 10 13 60 59 22 62 9 5-39 3-103-8-153 41 70 42 121 21 155-24 37-76 55-127 70z" transform="matrix(2.0127 0 0 1.8314 -2491 -4041)"/><path d="M1360 2722c-31 2-47-4-30-27 16-23 32-5 36 26 4 28-55 64-75 64-31 0-45-39-17-75-36 104 79 44 86 12zm-22-24c-3 0-6 7-4 8 5 4 14 2 15 0 2-5-5-8-11-8z" transform="matrix(2.0127 0 0 1.8314 -2491 -4041)"/><path d="M1191 2771c-30 59-1 83 38 77 22-4 51-20 67-42 0-48 0-95-4-141 15-18-2-18-7-37-3 11-9 23-3 32 4 46 6 94 6 142-30 24-53 33-69 33-33-1-40-29-28-64z" transform="matrix(2.0127 0 0 1.8314 -2491 -4041)"/><path d="M1252 2787c-1-45-1-95-5-126 15-18-1-18-6-38-3 12-10 24-4 32 2 48 5 96 5 143 4-2 8-3 10-11z" transform="matrix(2.0127 0 0 1.8314 -2491 -4041)"/><path stroke-width=".4" d="M1135 2785l-9-15c-1-7 4-13 4-17l13 18m5 3c8 3 17 3 25 3 33 1 68-4 64 40-3 39-36 62-65 62-42 0-78-46-13-131 6-1 14 1 21 1 11 1 23 0 36-11-1-28-1-54-5-79-5-9 1-21 4-32 5 19 22 20 6 37 4 28 4 56 4 73-8 12-14 25-36 30-24-4-34-36-59-25 7-30 69-37 75-13-4 24-62 14-77 92-5 24 21 47 47 45 25-2 52-20 55-49 2-25-33-22-47-22-22 1-35-3-43-7m21-54c4-4 18-7 22-1l-10 8-12-7z" transform="matrix(2.0127 0 0 1.8314 -2491 -4041)"/><path d="M1194 2651c4 8 5 13 5 21-2 10-11 20-20 20-6 1-12-1-17-10 0-1-2-4-5-2-10 16-17 23-26 23-19 0-13-16-30-21-7-1-19 6-24 20-23 64-43 0-35-29 2 28 9 45 16 44 5 0 9-12 16-25 5-9 17-26 29-26s5 21 28 21c11 0 21-9 32-26 2 0 3 4 3 5 2 6 12 22 26 8-1-4-1-9-4-10l6-13z" transform="matrix(2.0127 0 0 1.8314 -2491 -4041)"/><path stroke-width=".4" d="M1267 2598c-12 6-21 1-26-5 8-1 15-5 17-12-4-9-13-12-27-13-18 1-27 8-28 18 8 0 16-2 19 6-15 7-32 10-51 10-30 1-35-13-43-25l-5-2c-9 0-16 33-27 33-11-1-8-21-11-32-3 17 3 84 36 12 1-3 2-2 3 0 9 20 27 27 47 28 16 1 37-6 59-19 6 7 11 14 23 16 15 0 30-10 34-23 2-7 2-20-5-20-10 0-17 24-15 45l1-5m-44-29c7-3 13-4 18 2l-8 4c-3-2-7-3-10-6zm48 15c2-7 3-13 9-17 1 8 1 12-9 17zm39 11c-2-6-4-11-4-18-2-13 10-21 20-20 11 1 18 5 28 9l29 7c6 3 0 10-1 11-26 10-44 26-61 26-9 1-18-5-26-19 0-25-1-55-4-73l7-10c2 25 2 51 3 77 2 4 5 8 9 10zm17 2c-14 4-12-8-14-15-1-8 0-18 11-16l38 14-35 17z" transform="matrix(2.0127 0 0 1.8314 -2491 -4041)"/><path stroke-width=".4" d="M1314 2621l2 10h2l-1-9" transform="matrix(2.0127 0 0 1.8314 -2491 -4041)"/><path stroke-linecap="round" stroke-linejoin="round" stroke-width="4" d="M1094 2719l7-8 8 7-7 7-8-6zm18-3l7-7 8 7-7 7-8-7zm-49-74l7-8 8 7-8 7-8-6zm3 21l7-8 8 7-8 7-7-6zm128 35l7-5 6 6-7 5-6-6zm-86-135l5-5 5 4-5 5-5-4zm12-2l5-5 5 5-5 4-5-4zm246 54l-5 3-4-4 5-3 4 4z" transform="matrix(2.0127 0 0 1.8314 -2491 -4041)"/><path stroke-width=".4" d="M1159 2747l-1 8 13 2 10-8-22-2z" transform="matrix(2.0127 0 0 1.8314 -2491 -4041)"/><path d="M1265 2600l4-1v10l-3 1-1-10z" transform="matrix(2.0127 0 0 1.8314 -2491 -4041)"/></g><path fill="#fff" d="M0 1480c286 0 518-212 518-472 0-143-70-270-180-357 66 71 106 165 106 266 0 226-199 409-444 409s-444-183-444-409c0-101 40-195 106-266a453 453 0 00-180 357c0 260 232 472 518 472z" class="fil2"/><g fill="#fff" stroke="#000" stroke-width="8"><path d="M-54 1623c-88 44-198 32-291-28-4-2-6 1-2 12 10 29 18 52-12 95-13 19 2 22 24 20 112-11 222-36 275-57l6-42zm-2 52c-35 14-95 31-162 43-27 4-26 21 22 27 49 5 112-30 150-61l-10-9z" class="fil2 str2" transform="matrix(1.2987 0 0 1.1817 0 -176)"/><path d="M0 1579c12 0 34-5 56-8 41-7 11 56-56 56v21c68 0 139-74 124-107-21-48-79-7-124-7s-103-41-124 7c-15 33 56 107 124 107v-21c-67 0-97-63-56-56 22 3 44 8 56 8z" class="fil2 str2" transform="matrix(1.2987 0 0 1.1817 0 -176)"/><path d="M54 1623c88 44 198 32 291-28 4-2 6 1 2 12-10 29-18 52 12 95 13 19-2 22-24 20-112-11-222-36-275-57l-6-42zm2 52c35 14 94 31 162 43 27 4 26 21-22 27-49 5-112-30-150-61l10-9z" class="fil2 str2" transform="matrix(1.2987 0 0 1.1817 0 -176)"/><path d="M3 1665c2 17 5 54 28 38 31-21 38-37 38-67 0-19-23-47-69-47s-69 28-69 47c0 30 7 46 38 67 23 16 25-21 28-38 1-6 6-4 6 0z" class="fil2 str2" transform="matrix(1.2987 0 0 1.1817 0 -176)"/></g><g fill="#fff" stroke="#000" stroke-width="8"><path d="M-29 384c-13-74-122-79-139-91-20-13-17 0-10 20 20 52 88 73 119 79 25 4 33 6 30-8z" class="fil2 str2" transform="matrix(1.2987 0 0 1.1817 0 -176)"/><path d="M4 386c11-76-97-112-110-129-15-18-17-7-10 14 13 45 60 98 88 112 23 12 30 17 32 3z" class="fil2 str2" transform="matrix(1.2987 0 0 1.1817 0 -176)"/><path d="M93 430c10-91-78-105-101-134-15-18-16-8-11 13 10 46 54 100 81 117 21 13 30 18 31 4z" class="fil2 str2" transform="matrix(1.2987 0 0 1.1817 0 -176)"/><path d="M66 410c-91-59-155-26-181-29-25-3-33 13 10 37 53 29 127 25 156 14 30-12 21-18 15-22zm137 40c-28-98-93-82-112-94s-21-9-17 13c8 39 75 82 108 95 12 4 27 10 21-14z" class="fil2 str2" transform="matrix(1.2987 0 0 1.1817 0 -176)"/><path d="M190 467c-78-63-139-16-163-23-18-5-10 7-3 12 50 35 112 54 160 32 19-8 20-10 6-21zm169 64c1-62-127-88-154-126-16-23-30-11-22 26 12 48 100 101 148 111 29 6 28-4 28-11z" class="fil2 str2" transform="matrix(1.2987 0 0 1.1817 0 -176)"/><path d="M355 542c-81-73-149-49-174-56-25-6-35 9 4 39 48 36 122 43 153 36s23-14 17-19zm145 107c-23-106-96-128-114-148-17-20-35-14-20 34 18 57 77 107 108 119 30 13 28 3 26-5z" class="fil2 str2" transform="matrix(1.2987 0 0 1.1817 0 -176)"/><path d="M499 663c-59-95-136-92-160-105-23-14-39-2-8 39 36 50 110 78 144 80s28-7 24-14z" class="fil2 str2" transform="matrix(1.2987 0 0 1.1817 0 -176)"/><path d="M575 776c34-108-44-148-52-166-9-18-18-18-23 1-22 77 49 152 60 167 11 14 13 7 15-2z" class="fil2 str2" transform="matrix(1.2987 0 0 1.1817 0 -176)"/><path d="M559 806c-27-121-98-114-114-131-17-17-19-5-16 17 8 59 79 99 111 119 10 6 22 13 19-5zm68 142c49-114-9-191-27-208-18-16-29-23-23 0 8 35-20 125 23 191 14 22 16 43 27 17z" class="fil2 str2" transform="matrix(1.2987 0 0 1.1817 0 -176)"/><path d="M601 971c11-70-29-134-72-159-25-15-26-11-26 10 2 65 63 119 81 149 17 28 16 7 17 0z" class="fil2 str2" transform="matrix(1.2987 0 0 1.1817 0 -176)"/><path d="M590 1153c-36-132 39-208 62-223 22-16 36-22 26 3-15 37 1 140-56 205-18 22-25 45-32 15z" class="fil2 str2" transform="matrix(1.2987 0 0 1.1817 0 -176)"/><path d="M598 1124c30-115-35-180-55-193-19-13-31-18-22 3 12 32-1 122 49 178 16 19 22 38 28 12z" class="fil2 str2" transform="matrix(1.2987 0 0 1.1817 0 -176)"/><path d="M561 1070c-54 58-55 143-31 193 15 29 17 27 31 6 38-61 15-149 17-188 1-37-11-17-17-11z" class="fil2 str2" transform="matrix(1.2987 0 0 1.1817 0 -176)"/><path d="M650 1162c0 80-49 145-101 165-30 11-30 8-26-16 14-90 83-123 108-152 24-28 19-5 19 3z" class="fil2 str2" transform="matrix(1.2987 0 0 1.1817 0 -176)"/><path d="M464 1400c88-80 41-136 45-188 2-28-9-21-19-11-56 55-59 153-47 191 5 17 13 15 21 8z" class="fil2 str2" transform="matrix(1.2987 0 0 1.1817 0 -176)"/><path d="M582 1348c-29 88-106 142-171 145-38 2-37-1-24-27 49-94 136-105 175-129 36-22 23 2 20 11z" class="fil2 str2" transform="matrix(1.2987 0 0 1.1817 0 -176)"/><path d="M343 1513c114-57 91-152 112-176 15-17-3-15-12-9-67 39-121 101-122 167 0 25 2 28 22 18z" class="fil2 str2" transform="matrix(1.2987 0 0 1.1817 0 -176)"/><path d="M187 1619c144 23 211-86 253-96 22-5 6-14-5-15-96-11-218 34-255 84-15 20-15 24 7 27z" class="fil2 str2" transform="matrix(1.2987 0 0 1.1817 0 -176)"/><path d="M333 1448a279 279 0 01-218 179c-38 3-38-1-24-26 65-118 178-138 218-168 34-26 27 6 24 15zM29 384c13-74 122-79 139-91 20-13 17 0 10 20-20 52-88 73-119 79-25 4-33 6-30-8z" class="fil2 str2" transform="matrix(1.2987 0 0 1.1817 0 -176)"/><path d="M-4 386c-11-76 97-112 110-129 15-18 17-7 10 14-13 45-60 98-88 112-23 12-30 17-32 3z" class="fil2 str2" transform="matrix(1.2987 0 0 1.1817 0 -176)"/><path d="M-93 430c-10-91 78-105 101-134 15-18 16-8 11 13-10 46-54 100-81 117-21 13-30 18-31 4z" class="fil2 str2" transform="matrix(1.2987 0 0 1.1817 0 -176)"/><path d="M-66 410c91-59 155-26 181-29 25-3 33 13-10 37-53 29-127 25-156 14-30-12-21-18-15-22zm-137 40c28-98 93-82 112-94s21-9 17 13c-8 39-75 82-108 95-12 4-27 10-21-14z" class="fil2 str2" transform="matrix(1.2987 0 0 1.1817 0 -176)"/><path d="M-190 467c78-63 139-16 163-23 18-5 10 7 3 12-50 35-112 54-160 32-19-8-20-10-6-21zm-169 64c-1-62 127-88 154-126 16-23 30-11 22 26-12 48-100 101-148 111-29 6-28-4-28-11z" class="fil2 str2" transform="matrix(1.2987 0 0 1.1817 0 -176)"/><path d="M-355 542c81-73 149-49 174-56 25-6 35 9-4 39-48 36-122 43-153 36s-23-14-17-19zm-145 107c23-106 96-128 114-148 17-20 35-14 20 34-18 57-77 107-108 119-30 13-28 3-26-5z" class="fil2 str2" transform="matrix(1.2987 0 0 1.1817 0 -176)"/><path d="M-499 663c59-95 136-92 160-105 23-14 39-2 8 39-36 50-110 78-144 80s-28-7-24-14z" class="fil2 str2" transform="matrix(1.2987 0 0 1.1817 0 -176)"/><path d="M-575 776c-34-108 44-148 52-166 9-18 18-18 23 1 22 77-49 152-60 167-11 14-13 7-15-2z" class="fil2 str2" transform="matrix(1.2987 0 0 1.1817 0 -176)"/><path d="M-559 806c27-121 98-114 114-131 17-17 19-5 16 17-8 59-79 99-111 119-10 6-22 13-19-5zm-68 142c-49-114 9-191 27-208 18-16 29-23 23 0-8 35 20 125-23 191-14 22-16 43-27 17z" class="fil2 str2" transform="matrix(1.2987 0 0 1.1817 0 -176)"/><path d="M-601 971c-11-70 29-134 72-159 25-15 26-11 26 10-2 65-63 119-81 149-17 28-16 7-17 0z" class="fil2 str2" transform="matrix(1.2987 0 0 1.1817 0 -176)"/><path d="M-590 1153c36-132-39-208-62-223-22-16-36-22-26 3 15 37-1 140 56 205 18 22 24 45 32 15z" class="fil2 str2" transform="matrix(1.2987 0 0 1.1817 0 -176)"/><path d="M-598 1124c-30-115 35-180 55-193 19-13 31-18 22 3-12 32 1 122-49 178-16 19-22 38-28 12z" class="fil2 str2" transform="matrix(1.2987 0 0 1.1817 0 -176)"/><path d="M-561 1070c54 58 55 143 31 193-15 29-17 27-31 6-38-61-15-149-17-188-1-37 11-17 17-11z" class="fil2 str2" transform="matrix(1.2987 0 0 1.1817 0 -176)"/><path d="M-650 1162c0 80 49 145 101 165 30 11 30 8 26-16-14-90-83-123-108-152-24-28-19-5-19 3z" class="fil2 str2" transform="matrix(1.2987 0 0 1.1817 0 -176)"/><path d="M-464 1400c-88-80-41-136-45-188-2-28 9-21 19-11 56 55 59 153 47 191-5 17-13 15-21 8z" class="fil2 str2" transform="matrix(1.2987 0 0 1.1817 0 -176)"/><path d="M-582 1348c29 88 106 142 171 145 38 2 37-1 24-27-49-94-136-105-175-129-36-22-23 2-20 11z" class="fil2 str2" transform="matrix(1.2987 0 0 1.1817 0 -176)"/><path d="M-343 1513c-114-57-91-152-112-176-15-17 3-15 12-9 67 39 121 101 122 167 0 25-2 28-22 18z" class="fil2 str2" transform="matrix(1.2987 0 0 1.1817 0 -176)"/><path d="M-187 1619c-144 23-211-86-253-96-22-5-6-14 5-15 96-11 218 34 255 84 15 20 15 24-7 27z" class="fil2 str2" transform="matrix(1.2987 0 0 1.1817 0 -176)"/><path d="M-333 1448c29 95 137 173 218 179 38 3 38-1 24-26-65-118-178-138-218-168-34-26-27 6-24 15z" class="fil2 str2" transform="matrix(1.2987 0 0 1.1817 0 -176)"/></g><path d="M219 387c-24-17-115-7-132-18 32 25 105 7 132 18zm220 42c-20-32-135-53-152-81 30 54 119 47 152 81zm-17 37c-43-38-143-23-173-45 70 58 109 13 173 45zM171 298c28 13 61 26 78 57-19-24-54-33-83-53 2 0 4-3 5-4zm426 243c-16-35-76-74-81-87 16 46 66 57 81 87zm16 63c-52-74-134-66-166-94 24 27 118 44 166 94zm121 115c4-79-61-109-64-154-1 53 66 125 64 154zm-33 42c-13-68-101-73-117-113 0 38 104 77 117 113zm73-39c47 52 14 131 34 189-24-42-12-149-34-189zm-77 222c71 69 42 146 71 179-36-46-30-136-71-179zm146 10c-60 60-24 151-55 194 35-37 30-149 55-194zm-75 0c-8-70-80-106-86-144-8 38 69 97 86 144zm-37 167c12 48-31 152-18 184-29-56 25-161 18-184zm92 111c-28 86-85 80-104 132 13-50 89-95 104-132zm-185 40c-38 58-7 124-38 165 44-41 21-118 38-165zm91 158c-46 77-139 70-177 125 38-69 153-81 177-125zm-165-9c-81 50-56 104-117 160 76-56 70-119 117-160zm-38 205c-78-2-190 90-257 83 67 13 192-70 257-83zm-126-82c-5 72-208 118-230 166 25-64 203-111 230-166zM-58 214c-26-20-58-36-67-57 7 26 33 45 59 63l8-6zm-45 21c-40-17-87-16-107-41 13 25 57 34 94 47l13-6zm-116 152c24-17 115-7 132-18-32 25-105 7-132 18zm-220 42c20-32 135-53 152-81-30 54-119 47-152 81zm17 37c43-38 143-23 173-45-70 58-109 13-173 45zm173-111c24-47 94-53 113-82-28 43-87 50-113 82zm200-42c71-30 141-4 175-18-42 20-140 10-175 18zm-548 228c16-35 76-74 81-87-16 46-66 57-81 87zm-16 63c52-74 134-66 166-94-24 27-118 44-166 94zm-121 115c-4-79 61-109 64-154 1 53-66 125-64 154zm33 42c13-68 101-73 117-113 0 38-104 77-117 113zm-73-39c-47 52-14 131-34 189 24-42 12-149 34-189zm77 222c-71 69-42 146-71 179 36-46 30-136 71-179zm-146 10c60 60 24 151 55 194-35-37-30-149-55-194zm75 0c8-70 80-106 86-144 8 38-69 97-86 144zm37 167c-12 48 31 152 18 184 29-56-25-161-18-184zm-92 111c28 86 85 80 104 132-13-50-89-95-104-132zm185 40c38 58 7 124 38 165-44-41-21-118-38-165zm-91 158c46 77 139 70 177 125-38-69-153-81-177-125zm165-9c81 50 56 104 117 160-76-56-70-119-117-160zm38 205c78-2 190 90 257 83-67 13-192-70-257-83zm126-82c5 72 208 118 230 166-25-64-203-111-230-166zm295-1228c15-64 93-76 104-114-4 41-96 85-104 114zm230-159c-12 49-96 76-108 113 4-50 91-78 108-113zM58 272c41-59 124-44 152-78-20 40-123 41-152 78z" class="fil0" fill="#006233"/><path fill="none" stroke="#f7c608" stroke-linecap="round" stroke-linejoin="round" stroke-width="8.1" d="M476 1012a477 477 0 11-954 0 477 477 0 01954 0z" transform="matrix(1.2813 0 0 1.1659 -1 -177)"/><path fill="#f7c608" d="M-122 1558l-3 7c-1 5-6 7-11 7l-44-11 14-43c16 5 32 8 44 10 5 1 8 5 6 10l-2 6m-105-27l3-7c1-5 6-7 11-6 12 5 26 10 43 14l-14 43-43-12c-5-3-6-12-5-16"/><path fill="#006233" d="M-131 1555l-1 4c-2 4-5 5-10 5l-36-9 10-31c13 4 27 7 36 8 5 1 7 5 6 8l-2 4m-87-22l2-5c1-4 5-5 9-4 10 4 22 8 36 11l-10 31-36-10c-4-2-6-9-4-12"/><path fill="#f7c608" d="M-289 1504l-5 6c-2 4-8 5-13 4l-39-21 27-38 39 20c5 3 6 8 3 12l-3 5m-93-53l4-6c3-4 9-5 13-3 10 8 23 16 37 25l-27 38-37-24c-4-3-2-12 0-16"/><path fill="#006233" d="M-296 1499l-3 4c-2 3-7 3-11 2l-32-18 19-27 33 17c3 2 5 6 3 9l-3 3m-77-43l3-5c2-3 7-3 10-1l31 20-19 27-31-19c-4-3-3-10-1-13"/><path fill="#f7c608" d="M-433 1410l-6 5c-4 3-9 2-14 0l-30-31 37-29 32 29c3 4 3 9-1 12l-5 4m-73-74l6-5c4-3 10-3 13 1l28 33-37 29c-11-11-21-21-29-32-3-4 2-12 6-15"/><path fill="#006233" d="M-438 1403l-4 3c-3 2-7 2-11-1l-25-25 27-21 26 25c2 3 3 6 0 9l-4 2m-60-61l4-4c3-2 7-1 10 2l24 27-27 21-24-27c-2-3 0-9 3-12"/><path fill="#f7c608" d="M-542 1283l-7 2c-4 2-10 1-13-3l-20-37 45-19 21 37c2 4 0 9-4 11l-6 2m-47-90l7-3c5-2 10 0 12 4l17 39-45 19-18-38c-1-5 6-12 11-14"/><path fill="#006233" d="M-544 1274l-5 2c-4 2-7 0-10-3l-17-31 33-13c5 11 12 22 17 30 2 4 1 7-3 9l-4 2m-39-75l5-2c4-2 8 0 10 4l14 32-33 13-14-32c-1-4 3-9 7-10"/><path fill="#f7c608" d="M-606 1132l-8 1c-5 1-9-2-12-6-1-12-5-27-7-41l49-7c2 16 6 31 9 41 0 5-3 9-8 9l-7 1m-16-98l7-1c5-1 10 2 11 7 0 12 1 26 4 41l-49 7c-3-14-5-28-5-41 0-5 8-10 14-11"/><path fill="#006233" d="M-606 1124l-6 1c-3 0-6-3-8-6l-6-34 35-5 7 34c1 4-2 7-5 8h-5m-14-81l6-1c3-1 6 2 7 6l4 34-35 5-5-34c1-4 7-8 10-9"/><path fill="#f7c608" d="M-622 972l-8-1c-5-1-8-5-8-10 1-12 2-27 5-41l49 6c-3 16-4 31-4 42-1 4-6 7-11 7l-6-1m14-99l8 1c5 1 8 5 8 10-4 11-7 25-9 40l-49-6 7-41c2-4 12-7 17-6"/><path fill="#006233" d="M-619 964l-5-1c-4-1-6-4-7-8l5-34 35 4-4 35c0 4-4 6-7 6l-5-1m12-82l6 1c3 0 5 4 5 8-3 9-5 21-7 33l-35-4c2-12 3-23 6-34 2-4 8-6 12-5"/><path fill="#f7c608" d="M-587 814l-7-3c-5-2-7-7-6-12 6-10 11-25 18-38l45 19-17 38c-2 5-7 6-12 5l-6-3m44-91l8 3c4 2 6 7 4 11-7 10-14 23-21 37l-45-19 20-37c3-4 13-4 18-2"/><path fill="#006233" d="M-582 807l-5-3c-3-1-4-5-3-9l14-31 33 13-14 32c-2 4-6 5-9 4l-5-2m37-75l5 2c4 1 5 5 3 8-5 9-12 19-17 31l-33-13 17-31c3-3 10-4 13-2"/><path fill="#f7c608" d="M-505 671l-6-5c-4-3-4-8-2-12l29-32 38 29c-11 12-22 24-28 33-4 3-9 4-13 1l-5-4m70-76l6 5c4 3 5 8 1 11l-31 30-38-29 31-31c4-3 14 0 18 3"/><path fill="#006233" d="M-497 665l-5-3c-2-2-2-6 0-10l24-26 26 21-23 27c-3 3-7 4-10 1l-3-2m58-63l5 3c2 2 2 6 0 9l-27 25-26-21 25-26c4-2 11 0 14 2"/><path fill="#f7c608" d="M-382 555l-4-6c-3-4-1-9 2-12l38-24 26 38c-14 8-27 18-36 24-5 3-10 2-13-2l-3-5m91-55l4 6c3 4 1 9-3 11l-40 21-26-38 39-21c5-2 13 3 16 7"/><path fill="#006233" d="M-373 551l-3-4c-2-3-1-6 2-9l32-19 19 27c-12 6-23 14-31 20-4 2-8 1-10-2l-2-3m76-46l3 5c2 3 0 6-3 8l-33 18-19-27 32-18c4-2 10 2 12 4"/><path fill="#f7c608" d="M-227 475l-3-7c-1-4 2-8 6-11l43-13 14 43-43 14c-5 2-9-1-11-5l-2-6m105-29l2 7c1 4-1 9-6 10l-45 9-14-43c15-4 30-8 44-10 6 0 12 6 13 11"/><path fill="#006233" d="M-218 474l-2-5c-1-3 2-6 6-8l36-11 9 31-35 12c-4 1-8-1-9-4l-2-4m87-24l2 5c1 3-2 6-6 7l-37 8-9-31 36-8c4-1 9 4 10 7"/><path fill="#f7c608" d="M-55 438v-7c0-4 4-8 9-9l46-1v45l-46 2c-5 0-9-4-9-8v-6m109-1v7c0 4-4 8-9 8l-45-2v-45l45 1c5 1 9 9 9 14"/><path fill="#006233" d="M-46 440v-5c0-4 4-6 8-7l38-1v32l-38 2c-4 0-8-2-8-6v-4m91-1v5c0 3-3 6-7 6l-38-2v-32l38 1c4 1 7 7 7 10"/><path fill="#f7c608" d="M110 446l2-6c2-5 7-7 12-7l44 10-13 43-45-9c-5-1-8-6-6-10l2-6m105 26l-2 7c-2 4-6 7-11 6-13-5-27-10-43-14l13-43 43 12c5 3 6 12 5 16"/><path fill="#006233" d="M119 450l1-5c1-3 5-5 10-4l36 8-9 31-37-8c-4-1-7-4-6-7l2-4m87 21l-1 5c-1 4-5 5-10 4l-35-11 9-31 36 10c4 2 6 9 5 12"/><path fill="#f7c608" d="M278 499l4-6c3-4 8-5 13-4l39 21-26 38-40-20c-4-2-5-7-3-11l4-5m93 52l-4 6c-3 4-8 5-13 2l-37-24 26-38 38 23c4 4 2 13-1 17"/><path fill="#006233" d="M285 505l3-5c2-3 6-3 10-2l33 18-19 27-33-17c-4-2-5-6-3-8l2-4m78 43l-3 5c-2 2-6 3-10 1l-31-20 19-27 31 19c3 3 3 9 1 12"/><path fill="#f7c608" d="M422 592l6-4c4-4 10-3 14 0l31 30-37 29-32-29c-3-4-3-9 1-12l5-4m73 74l-6 5c-4 3-9 3-13-1l-28-33 37-29c10 10 21 21 29 32 3 4-2 12-6 15"/><path fill="#006233" d="M427 600l4-4c3-2 7-1 11 1l26 25-27 21-26-24c-3-3-3-7 0-9l3-3m61 61l-4 4c-3 2-7 1-10-2l-24-27 27-21 24 27c2 3 0 9-3 11"/><path fill="#f7c608" d="M532 719l7-3c5-2 10 0 13 3l21 37-45 19c-7-14-15-27-22-36-2-4 0-9 5-11l6-3m47 90l-7 3c-5 2-10 0-12-4l-17-39 45-19 18 38c1 5-6 12-10 14"/><path fill="#006233" d="M535 727l5-2c3-1 7 0 10 3l16 31-32 14-17-31c-2-3-1-7 2-8l5-2m39 74l-5 2c-4 2-7 0-9-3l-15-32 32-14 16 32c1 4-4 9-7 10"/><path fill="#f7c608" d="M598 868l8-1c5 0 9 3 11 7l9 41-49 7-10-41c0-5 3-9 8-9l6-1m18 98l-8 1c-5 0-9-2-10-7l-4-41 49-7 5 41c0 5-9 9-14 10"/><path fill="#006233" d="M598 877l5-1c4 0 7 2 9 6l7 34-35 5c-2-13-5-25-8-34-1-4 2-7 5-8h5m15 81l-6 1c-4 0-7-2-7-6l-4-34 35-5 4 34c0 4-6 8-10 8"/><path fill="#f7c608" d="M615 1029l8 1c5 1 8 5 9 9l-5 41-49-5c3-16 4-31 4-42 1-4 5-8 10-7l6 1m-13 98l-7-1c-6 0-9-4-8-9l8-40 49 5-7 41c-2 5-12 7-17 7"/><path fill="#006233" d="M612 1037l6 1c4 0 6 4 6 8l-4 34-35-5 3-34c1-4 4-6 8-6l4 1m-11 82l-5-1c-4 0-6-4-6-8 3-9 5-21 7-34l35 5c-2 11-3 23-6 34-1 4-8 6-12 5"/><path fill="#f7c608" d="M582 1187l7 3c5 2 7 7 6 12l-17 38-45-18 16-39c2-4 7-6 12-4l6 2m-44 91l-7-3c-4-2-6-6-4-11 6-10 14-22 21-36l45 18-20 37c-3 4-13 4-18 2"/><path fill="#006233" d="M577 1194l5 3c3 1 5 5 4 9l-15 31-32-13 13-32c2-3 6-5 9-4l5 2m-36 76l-5-2c-4-2-5-5-3-9l17-31 32 13-16 31c-3 4-10 4-13 3"/><path fill="#f7c608" d="M501 1331l6 4c4 3 4 8 2 13l-28 32-38-29c11-12 21-24 27-33 4-4 9-4 13-1l5 4m-70 76l-5-4c-4-3-5-8-1-12l31-30 38 29-31 31c-4 3-14 0-18-3"/><path fill="#006233" d="M494 1336l4 4c3 2 3 6 1 9l-24 27-27-21 23-27c3-3 7-4 10-2l4 3m-58 64l-5-4c-3-2-3-6 0-9l26-25 27 21-25 26c-4 2-11 0-14-2"/><path fill="#f7c608" d="M379 1448l4 6c3 4 2 8-2 12l-37 24-27-38c14-8 28-18 37-25 4-2 9-1 12 3l4 5m-91 55l-4-6c-3-4-2-9 3-11 11-6 25-12 39-21l27 38-39 21c-5 2-13-3-16-7"/><path fill="#006233" d="M370 1451l3 4c2 3 1 7-2 10l-31 19-19-27c11-7 23-14 30-20 4-2 8-1 10 1l3 4m-76 46l-3-4c-2-3-1-7 3-9l33-18 19 27-32 18c-4 2-11-1-13-4"/><path fill="#f7c608" d="M226 1528l2 7c1 5-1 9-6 12l-43 13-14-43 43-14c5-2 9 1 11 5l2 6m-104 30l-3-7c-1-5 2-9 7-10l44-10 14 43-44 11c-5 0-11-7-13-11"/><path fill="#006233" d="M216 1530l2 4c1 4-1 7-5 9l-36 11-10-31 35-12c4-1 8 1 9 4l2 4m-87 25l-1-5c-1-3 1-6 5-8l37-8 10 31-37 9c-4 0-9-5-10-8"/><path fill="#f7c608" d="M54 1567v7c0 5-4 8-9 9l-46 2v-45c17 0 33-1 45-3 5 0 9 4 9 9v5m-109 3v-7c0-5 4-9 9-9l46 2v45l-45-1c-6-1-9-9-10-14"/><path fill="#006233" d="M44 1566v5c0 3-3 6-7 6l-38 2v-33l37-2c5 0 8 3 8 6v5m-91 1v-5c0-3 3-6 8-6 11 1 24 2 38 1v33l-38-1c-4-1-7-7-8-10"/></svg>