<svg xmlns="http://www.w3.org/2000/svg" width="798" height="531"><path fill="#D4001C" d="M0 0h798v531H0z"/><g fill="#FDDD00"><path d="M184 267l9 7c15 12 39 36 45 77l2 11 8-7c14-12 56-44 117-53-9 61-41 103-53 117l-7 8 11 2c41 6 65 30 77 45l7 9 7-9c12-15 36-39 77-45l11-2-7-8c-12-14-44-56-53-117 61 9 103 41 117 53l8 7 2-11c6-41 30-65 45-77l9-7-9-7c-15-12-39-36-45-77l-2-11-8 7c-14 12-56 44-117 53 9-61 41-103 53-117l7-8-11-2c-41-6-65-30-77-45l-7-9-7 9c-12 15-36 39-77 45l-11 2 7 8c12 14 44 56 53 117-61-9-103-41-117-53l-8-7-2 11c-6 41-30 65-45 77l-9 7zm35 0c28-26 35-54 35-54 40 34 104 42 135 43-1-31-9-95-43-135 0 0 28-7 54-35 26 28 54 35 54 35-34 40-42 104-43 135 31-1 95-9 135-43 0 0 7 28 35 54-28 26-35 54-35 54-40-34-104-42-135-43 1 31 9 95 43 135 0 0-28 7-54 35-26-28-54-35-54-35 34-40 42-104 43-135-31 1-95 9-135 43 0 0-7-28-35-54z"/><circle cx="176.8" cy="267" r="18"/><circle cx="237.6" cy="164.6" r="18"/><circle cx="237.6" cy="369.4" r="18"/><circle cx="297.6" cy="104.6" r="18"/><circle cx="297.6" cy="429.4" r="18"/><circle cx="400" cy="43.8" r="18"/><circle cx="400" cy="490.2" r="18"/><circle cx="502.4" cy="104.6" r="18"/><circle cx="502.4" cy="429.4" r="18"/><circle cx="562.4" cy="164.6" r="18"/><circle cx="562.4" cy="369.4" r="18"/><circle cx="623.2" cy="267" r="18"/></g></svg>