<svg xmlns="http://www.w3.org/2000/svg" xmlns:xlink="http://www.w3.org/1999/xlink" width="1152" height="720"><defs><linearGradient id="a"><stop stop-color="#84be86" offset="0"/><stop stop-color="#328c4e" offset="1"/></linearGradient></defs><path fill="#f4e109" d="M0 0v720h1152V0z"/><path fill="#da251c" d="M597 620l555 56V42H42v634"/><g fill="#29166f"><path d="M597 359V42H319zm0 0l555-317H874z"/><path d="M1152 200v159H42v159z"/><path d="M1152 676V518L42 200V42z"/></g><path fill="#f4e109" d="M393 330l102 18a104 104 0 000 22l-102 18 103-11 5 19-94 43 97-37 4 8h178l4-8 97 37-94-43 5-19 103 11-102-18a104 104 0 000-22l102-18-103 11-5-19 94-43-97 37-11-20 78-68-82 63c-11-11-24-21-38-27l34-98-40 96a102 102 0 00-68 0l-40-96 34 98c-14 6-27 16-38 27l-82-63 78 68-11 20-97-37 94 43-5 19z"/><path fill="#fff" d="M597 359l555 317H42l555-317z"/><g fill="#da251c" stroke="#000" stroke-width=".5"><path fill="#f1c700" d="M630 594a33 33 0 11-66 0 33 33 0 0166 0z"/><path d="M625 594a28 28 0 11-56 0 28 28 0 0156 0z"/><path fill="#e87817" d="M621 594a24 24 0 11-48 0 24 24 0 0148 0z"/><path fill="#29166f" d="M621 594a24 24 0 01-48 0 12 12 0 1124 0 12 12 0 1024 0z"/><path fill="#e87817" d="M588 594a3 3 0 11-6 0 3 3 0 016 0z"/><path fill="#29166f" d="M612 594a3 3 0 11-7 0 3 3 0 017 0z"/><path d="M597 556a2 2 0 110-5 2 2 0 010 5zm0 2a3 3 0 11-5 0 3 3 0 015 0z"/><path d="M602 558a3 3 0 11-5 0 3 3 0 015 0zm-5 74a3 3 0 110 5 3 3 0 010-5z"/><path d="M597 630a3 3 0 115 0 3 3 0 01-5 0z"/><path d="M592 630a2 2 0 115 0 2 2 0 01-5 0zm48-36a3 3 0 11-6 0 3 3 0 016 0z"/><path d="M635 596a3 3 0 11-5 0 3 3 0 015 0zm-2-7a2 2 0 100 5 2 2 0 000-5zm-74 5a3 3 0 10-5 0 3 3 0 005 0z"/><path d="M564 591a3 3 0 11-5 0 3 3 0 015 0z"/><path d="M564 596a3 3 0 11-5 0 3 3 0 015 0z"/></g><g stroke-width=".5"><g fill="#e0609b" stroke="#000"><path fill="#e87817" d="M600 516a3 3 0 11-6 0 3 3 0 016 0z"/><path fill="#e12211" d="M622 487c-1 6-12 10-25 10s-24-4-25-10c-5 2-7 5-7 8 0 8 14 14 32 14s32-6 32-14c0-3-3-6-7-8z"/><path d="M597 497h-7c0 1-2 8 7 12 8-3 8-10 7-12h-7zm-25-11c-1 0-8 2-6 13 9 3 10-6 10-7-2-2-4-4-4-6z"/><path d="M589 497c0 1 0 9-10 10-7-6-3-13-1-14l11 4zm29-5c0 1 1 10 10 7 1-11-5-13-6-13 0 2-2 4-4 6z"/><path d="M616 493c2 1 6 8-1 14-11-1-10-9-10-10l11-4z"/><path fill="#f1c700" d="M628 492l1 3c0 8-14 14-32 14s-32-6-32-14l1-3c-4 2-6 5-6 8 0 9 16 15 37 15s38-6 38-15c0-3-3-6-7-8z"/></g><path d="M597 504l-1-7h1v7zm-24-15l-4 6a241 241 0 014-6zm9 6l-1 6 2-6h-1zm39-5zm-10 5l2 6-1-6h-1z" fill="#fff"/><g stroke="#000"><path fill="#e12211" stroke-linejoin="round" stroke-linecap="round" d="M576 462l-5-5c-4-2-6-1-10-2-3 0-10-3-8-15 2 11 7 8 8 6l-3-6c-2-1-6-5-6-10l1-4c0-2 3-4 2-7 2 4-2 4 2 11 1 2 3 0 3-1 1-2-1-5-2-7l-1-9c2-4 4-5 5-9 1-2-2-7 2-10-2 6 1 8 2 9v7c-1 1 2 2 3 1 2-1 2-5 2-7 0-3 2-4 4-5 3-1 7-5 4-12 7 6 5 11 5 13l-2 9c0 3 2 3 3 2v-7c0-3 5-4 5-6 1-2-5-6-4-10 0-5 5-3 3-9 4 4 1 6 1 8 0 1 0 3 2 3l3-5c2-8-5-6-4-13 2 5 6 2 10 8v7c0 2 2 5 3 3 3-5-1-6 2-11-1 8 4 6 3 15 0 3-5 7-5 10-1 2 0 5 1 6 2 2 3 1 4 0l-1-5c-1-2 0-4 3-4 2-1 4-4 3-7 0-2-4-4 0-11-3 8 4 7 5 12l-1 5c0 2 4 4 3-2 5 4 5 9 5 10-1 2-3 4-2 6s4 3 5 1l1-6c-1-3-5-4-1-10 0 6 5 9 6 12v4c1 1 5 0 2-7 6 5 2 10 0 12-1 1-5 5-5 9 0 3 4 6 5 3s-1-6 2-10c-1 4 0 9 2 10 2 0 3-3 3-5 2 5-2 8-3 9l-2 5-7 3c-2 1-4 4 0 5 3 0 5-1 7-6 3 10-5 13-9 14-4 0-10 0-11 2-2 1-2 3-2 3s-3 5-8 6-19 2-24 0-7-4-9-6zm67-45c-6 5-1 12 0 8 2-4-2-3 0-8zm-16 22l-1 2h2l2-3-2-6c-2 2 2 3-1 7zm-6-24c-1 4 1 5 2 6v3l2 1v-4c-1-2-4-2-4-6zm-6-13c2 3 0 4 1 7 0 1 2 4 2 2v-4l-3-5zm-6 12c4 6 0 11-1 12l-2 2c0 1 0 3 1 2 2 0 3-1 4-3l1-6c0-3-1-7-3-7zm-7-1c-2 2 0 4 0 5l-1 3 2 1 1-4c-1-1-3-2-2-5zm-10-6c-5 5-2 10-1 11 0 0 2 1 2-1 1-4-3-4-1-10zm-6 9c-3 9 0 9 0 9l1-2c0-1-2 0-1-7zm-7-3c1 4-1 4-2 10l1 5h2l1-3c-1-1-3-1-3-3 1-3 3-7 1-9zm-11 0c-2 5 2 5 3 7 0 1 1 2 2 1l-1-4c-1-1-4-1-4-4zm-4 9c-2 2 1 3 0 6v4h2l1-4c0-1-3-3-3-6zm11-18v4h2v-3c0-1 3-1 2-5-1 3-3 3-4 4zm19-2l2 6c1 2 3 0 3-1l-2-5c-1-4 4-6 0-11 2 6-2 5-3 11z"/><path fill="#f1c700" d="M615 477l2 4c0 6-9 11-20 11s-20-5-20-11l1-4c-4 3-6 5-6 8 0 7 11 12 25 12s25-5 25-12c0-3-2-6-7-8z"/><path fill="#e12211" d="M616 478h-1l-2-8c-4 2-9 3-16 3s-12-1-16-3l-2 8h-1l-1 3c0 6 9 11 20 11s20-5 20-11l-1-3z"/><path fill="#e87817" d="M580 467c1 5-3 11-2 14 1 2 4 4 6 4 6 2 7-3 8-14-4 0-10-1-12-4z"/><path fill="#29166f" d="M614 467c-1 5 3 11 2 14-1 2-4 4-6 4-6 2-7-3-8-14 4 0 10-1 12-4z"/><path fill="#fff" d="M602 472c1 2 3 11 2 13s-4 4-7 4-6-2-7-4 1-11 2-13h10z"/><path fill="#e87817" d="M580 432c-5-4-8-4-8-4s-2 2-2 8c-1 4-1 11 2 17l9 14 4 4 10-5v-5l-4-16c-3-6-8-11-11-13z"/><path fill="#29166f" d="M614 432l7-4s2 2 3 8c1 4 1 11-2 17s-8 12-10 14l-3 4-10-5v-5l4-16c3-6 8-11 11-13z"/><path fill="#fff" d="M603 430l-6-6s-3 1-6 6c-2 4-4 10-4 16a58 58 0 005 22h11l1-5c1-2 3-10 3-17 0-6-2-12-4-16z"/><path fill="#f4e109" d="M597 471c-10 0-17-2-20-5v1c0 3 9 6 20 6 10 0 19-3 19-6v-1c-2 3-10 5-19 5z"/><path fill="#e87817" d="M597 469c-10 0-18-2-20-5 0 0 0 0 0 0 0 4 9 7 20 7s20-3 20-7h-1c-2 3-10 5-19 5z"/><path fill="#f4e109" d="M597 467c-10 0-18-2-21-5 0 0 0 0 0 0 0 4 9 7 21 7 11 0 20-3 20-7 0 0 0 0 0 0-2 3-11 5-20 5z"/></g><path d="M577 430c1 1-1 3-2 3h-5v1h5l3-4h-1zm4 3c1 1-1 4-4 6-3 1-7 0-7-1v1c0 1 4 2 7 1 4-2 5-5 5-6l-1-1z"/><path d="M585 436c0 2-2 6-6 8-4 1-9 0-10-1h1c0 2 5 4 9 2 5-2 7-7 6-8v-1zm2 10l-5 4c-5 2-11 1-11-1v1c1 2 6 4 11 1l5-3v-2zm30-16c-1 1 0 3 2 3h5v1h-5l-3-4h1zm-4 3c-1 1 1 4 4 6 3 1 7 0 7-1v1c0 1-4 2-7 1-4-2-6-5-5-6l1-1z"/><path d="M609 436c-1 2 2 6 6 8 4 1 9 0 9-1 0 2-5 4-10 2-4-2-6-7-5-8v-1zm-2 11v1l5 3c5 3 10 1 11-1v-1c-1 2-6 3-11 1l-5-3zm-6-20l-4 2-4-2v1l4 2 4-2v-1zm2 5c0 1-2 3-6 3s-6-2-6-3h-1c0 2 3 4 7 4s7-2 7-4h-1zm2 4c0 2-3 4-8 4s-8-2-8-4l-1 1c0 2 4 5 9 5s9-3 9-5l-1-1zm2 7c0 2-4 6-10 6s-10-4-10-6c0 2 5 5 10 5s10-3 10-5z"/></g><g id="b" stroke="#000" stroke-width=".5" stroke-linejoin="round" stroke-linecap="round"><path fill="#f4e109" d="M578 509c7 7 0 12-5 9l1-3s5 1 4-6z"/><path d="M445 608s-4 8-7 10h-2l6 4 7 2 7-3h6c1 1 4 4 3 5l-3 2v2l-3 2-1 2-2 2-1 4c-1 2-3 2-5 2l-6-2-4-2-3-4-15-6-13-3s8-7 9-13 2-9 10-7c7 2 17 2 17 2zm69-70l6-4c7-2 9 0 9 0s0-3 6-4c5-2 8-1 8-1s1-3 4-5c3-1 6-2 6-4v-8c1-2 4-4 7-2h4l2 1h4l3 1s3 2 2 4c0 1-1 4-3 4l-8 1-5 6c-1 2-6 16-13 21s-18 17-21 17l-8 2s2-16 0-21l-3-8z" fill="#fff" stroke-width="1.4"/><g fill="url(#a)" stroke-width=".7"><path d="M375 542s7-6 14 2c6 7 3 15-1 18-3 3-7 6-13 5 2-2 1-4 1-4-1-2 1-2 3-5 2-1 3-5 2-8-2-5-6-8-6-8z"/><path d="M302 567c6-4 8 4 15 1 4-1 7-8 12-9 4-1 9 3 12 1 6-4 1-14 14-19 8-4 18-3 22 1 5 5 6 12 5 15l-6 6-6 1s-2-5-7-6c-4 0-7 3-9 6-3 4-9 10-19 8-4-1-8 5-18 2-5-2-8-7-15-7z"/><path d="M307 582c5-4 9 0 11 0 4 0 7-3 8-6s4-6 8-7c4 0 10 1 13-3 3-3 8-14 14-15s9 1 10 4l-1 10-3 5-8 3s0 4-4 6h-18c-5 2-5 4-11 5-12 2-13-5-19-2z"/><path d="M303 601c5-7 11 2 17-2 4-2 5-10 9-12 4-1 10 2 13-2 2-4 0-10 6-13s11-1 11-1l8-1c3 0 10 4 10 4s1 8-4 13c-6 5-11 8-15 6-3-1-5-2-8 0-2 2-2 4-7 4s-8-2-11-1c-2 2-4 6-8 7-13 2-14-5-21-2zm109 21l-5 4-7 3s4 0 5 2c1 1-1 4-6 2 2 5 10 3 12 2s5-2 6-1c0 1-1 5-6 3 8 5 12 0 14-2 3-1 5-2 6-1 0 1 1 4-5 4 5 2 8 0 10-2 1-2 2-2 3-2 2-1 7-3 8-5 1-3 1-5-1-7-1-1-2-2-3-1l-2 1c0 1 1 3-1 4-3 1-5 2-8 1l-8-2c-2 1-4 2-6 1l-6-4zm136-101c2-1 4-3 7 0l8 9c8 7 6 11 2 16 2-9-5-11-4-7 0 4 3 6-2 15l-1-7c0-2-2-2-2 0s3 10-6 18c7-11-1-14-2-10-3 7-1 15-11 16 8-7 4-13 1-10-4 5-2 12-10 17 4-8-1-8-3-7l-9 6 1-8 2-5s6-1 8-5 3-9 8-11c4-2 12-4 14-8 3-4 2-6 0-9s-4-4-4-6l3-4z"/><path d="M544 529c-3-2-9 1-9 1s5-1 6 1v3s0 0 0 0l-2-1c-2 0-4 2-4 3 0 2 2 4 4 4s4 0 5-2c2-2 3-6 0-9zm-17 4c-3-1-8 1-8 1s6 0 7 2c2 1 1 2 1 3a4 4 0 00-6 3c0 2 2 4 4 4h2l2-1c2-2 2-4 2-7 0-1-1-4-4-5zm-84 77s-1 4-5 6c-2 1-5 0-6-1l1-3a4 4 0 00-8 0v2c0 2 2 4 5 5 4 1 8 0 11-3l2-6zm59-149c19-1 18 12 10 15h-8c-5 1-6-5 0-6 5-1 9-6-2-9z"/><path d="M437 479c8-10 16 1 23-3 4-2 7-8 13-7s9 2 12 0 8-6 15-4c3 1 5 3 5 5v6l-10 2-8 4s-4-6-8-6c-3 0-9 0-12 3-2 2-6 6-11 4-5-1-9-8-19-4z"/><path d="M428 492c12-10 12 3 22-7 4-4 8-1 13-4 6-4 10-10 16-8 7 2 10 8 10 8s-8 5-9 9c-2 3-10-2-15-1-5 0-8 3-12 6-15 7-14-6-25-3z"/><path d="M415 521c10 5 16 3 18 0 3-4 3-9 8-11 4-2 8 0 10-2 3-4 0-17 6-21 13-9 25 0 25 0s-6 6-7 14c-1 7 2 11 2 11s-3 7-13 5c-12-1-13 0-19 5-6 7-20 10-30-1z"/><path d="M406 539c8-5 10 2 19 2 4-1 8-3 10-7 3-5 5-7 10-7 6-1 10-1 12-5 2-3-2-13 4-19s14-4 14-4-1 5 0 9c2 5 5 6 5 6s-5 2-6 8c-1 5 1 10 1 10s-7 6-17 5c-11-2-12-2-15 0-4 3-7 7-15 8-12 0-12-8-22-6z"/></g><g stroke-width="1.4" fill="#fff"><path d="M388 573c-10 7-13 1-20-2h-5l-2-4s-1-2 0-4c2-1 6 0 7 1l5 6c2 1 5 2 8 1l13-10c6-4 11-6 16-6 6 0 10 2 14 3 4 0 9-2 13-4 4-3 15-5 25-12l15-16c2-3 13 2 15 3 2 2 10 1 10 1l7-3 2 1s6 9 8 16c2 6 2 21 1 26s-2 14-8 19c-7 4-29 14-39 16-11 3-18 7-23 6l-21-3-9-1s0 7-2 11-9 10-14 12l-14 2v4l6 10c2 1 6 2 8 1 2 0 4 0 5 2v5l-1 1-1 3-3 1-1 1-2 1-3 1c-1 1-7 0-10-2l-2-7-4-4c-1-1-21-25-21-28 0-2 2-9 5-10 3-2 9-3 9-5 1-2-1-12 1-18 3-9 4-10 12-15z"/><path d="M364 573c5 2 1 8-4 6-2-1-4-4-3-7l4-3 4 2-4 2c-1 1 0 3 1 3 1 1 3 0 2-3zm110-10s14 2 18 6c5 4 4 8 4 8s7 0 10 3l4 5 10 2 5 5 6 2c4 1 6 3 8 2 3 0 7-1 8-3 1-3 0-8 2-10 3-3 4-3 6-3l3 5 4 2v4l1 3v3l-1 4-4 1v3c0 2-1 2-2 3l-4 1c-1 1-2 3-5 3l-8-4-27-3c-9-2-15-2-24-2-8 0-20-1-20-5-1-4 2-8 2-10l-3-10c0-2-1-11 1-14l6-1z"/><path d="M365 565c-1 3-4 1-3-1l5-1 4 5c0 1 0-4-2-6-1-2-5-3-8-1-2 1-3 3-3 6 1 2 3 4 5 4 4 0 6-3 2-6z"/><path d="M375 567c5-2 1-7-1-7-3 0-4 2-4 4l1 5 2 1v-5c1-1 3-2 2 2z"/></g><path fill="#fff" stroke="none" d="M464 559l15 4c4 1 3 5 1 8s-1 11-2 13l-7 5c-4-3-9-5-9-12l2-18z"/><g fill="#f4e109"><path d="M400 658s-3-1-4 1l1 3s4 0 1 6c7-4 2-10 2-10z"/><path d="M403 656s-2-1-2 1v3s3 1 2 5c6-5 0-9 0-9zm6-6l-1 1v3s3 0 3 4c5-7-2-8-2-8zm45-15s-2-1-2 2c-1 3 1 3 1 3s3-1 4 3c5-5-3-8-3-8zm3-4s-1-1-1 2l1 2s3-1 4 3c4-5-4-7-4-7zm4-4s-2-1-2 2l1 2s4-1 4 2c5-4-3-6-3-6zm2-5c-3 1-1 5 0 5 1-1 3-2 3 1 4-3-2-6-3-6zm99-39c-2-7-8-2-8-2s-1 1 0 2c1 2 3 1 3 1s2-3 5-1zm-3 3v3l3 2s1-3 5 0c-1-7-7-6-8-5zm2 6c1-1 9 1 7 8-2-5-6-2-6-2l-2-3c-1-2 0-3 1-3zm-5 9s-2 0-2 2c-1 3 1 3 1 3s5 0 4 6c6-7 0-11-3-11z"/><path d="M407 653s-2 0-2 2c-1 1 1 2 1 2s3 0 2 5c4-5-1-9-1-9z"/></g><g fill="#93aa5e"><path d="M497 474c2 0 4-1 5 1l1 2-5 1-4 1v-3l3-2zm-11 10s-4-2-2-4c2-3 4-4 5-4 2-1 5 3 5 3l-4 3-4 2zm-7 9s-3-2-3-4c0-3 3-7 6-6l4 1-5 5-2 4zm-3 6s-2-1-3 0c-2 1-3 4-3 6l4 4 2-1-1-4 1-5z"/><path d="M475 520s-4-1-4-4 0-6 1-7l4-1 2 4 3 2s-2 0-3 2l-3 4z"/><path d="M475 530s-2 1-4-1c-1-2-2-6 0-8 1-2 4-1 4-1l-1 4 1 6zm4-37s-3-3-4-1c-2 2-3 3-3 5l4 2 1-3 2-3z"/></g><path fill="#f1c700" stroke-width="1.4" d="M513 506s-4 1-4 4c1 4 6 3 6 3l-9 5-3 4-2-5c1-2 3-2 3-4 0-1 0-6 2-7h7z"/><path fill="#fff" stroke-width="1.4" d="M533 486s1-6-1-8l-6-3-7 3s-1-2-7-2-11 0-17 2l-13 9c-3 2-6 8-7 12s-1 8 1 10l4 5s-4 2-6 6v11l1 2s4-1 5-3l4-7 7-1s-1-4 2-7l2-4c0-2 1-3 3-5 2-1 5-2 7-5l2-4c1-2 5-1 7-1l7-1 5-3 2-4 2-3 3 1z"/><g fill="url(#a)" stroke-width=".7"><path d="M510 473c-2-1-5 0-6 2s0 4 2 5 3 2 5 1l7-3c2-1 1-2-1-2h-5l-2-3zm-12 17s0 2-2 2-4-1-3-3c1-3 3-3 5-3s5 1 5 3c1 2 1 6-1 7l-6 5c-3 1-5 0-8 2-2 1-2 4-6 4s-5-2-5-2 5 2 7 0c1-2 0-8 4-10 3-1 9 0 10-2v-3zm-85 73l-4 2v-4c0-2 4-4 7-4 3-1 7 1 7 1s-4-2-9-2c-4 0-9 2-10 6-1 3 0 8 4 10l6 1a5 5 0 00-1-10zm32 3l-1-3-4-2c-3 0-5 2-5 5-1 0-3 0-4-3l1-6 4-2s-6 1-9 5c-1 3-1 7 2 10s7 4 11 3c3-1 5-3 5-4v-3zm-48 64l-6-2a4 4 0 00-3-7c-2 0-3 1-4 3s0 3 0 5c2 3 7 4 9 4 8-1 13-4 15-5-1 1-4 2-11 2zm20-12c-3 2-7 3-10 2l-4-2 2-3c0-2-2-4-5-4l-3 1c-1 1-2 4-1 7 1 2 4 5 9 6s10-3 12-5c2-3 2-7 2-7l-2 5z"/><path d="M359 597c11-7 18 4 20 7 1 3 2 11 0 13-2 3-6 3-8 4s-2 3-1 5l4 5 6 6c2 2 4 5 6 4l5-1c1-1 3 0 4 1 1 2 1 5-2 7s-4 4-8 4c-4 1-7-1-9-2-3-1-7-4-12-1 2-6 9-3 10-3 2 0 2-1-1-3s-11-2-16-8c9 4 10 0 9-2s-5-3-7-4c-3 0-8-2-11 0 2-4 9-1 10-3s-1-4-3-5c-1-1-4-2-9 1 3-6 10-2 12-5v-5c-1-1-3-2-4-1-1 0-3 2-6 0 4 1 5-4 10-4l3-2c0-1-1-3-3-3-1 0-3 3-8 0 4 1 6-2 10-3l6 1c1 1 3-1 1-2-1-1-3-3-8-1zm161-11l-8-1s6 1 8 5v4s0 0 0 0a4 4 0 00-6 3c0 2 1 4 3 4 0 0 4 0 6-3 4-5-1-10-3-12zm-14-7c-3-2-8-1-8-1l4 3 1 3a6 6 0 10-3 11h1c1 0 7-1 9-7 1-4-1-7-4-9zm-15-11c-7-5-16-5-16-5s11 4 12 10c1 4 0 5-1 5a5 5 0 10-8 4c1 2 4 5 9 5 4 0 7-4 8-6s2-9-4-13z"/><path d="M468 583l3 6c0 2-1 9 3 11s14 1 18 0h15c2 1 10 5 13 4 4 0 11-1 12-4l1-6h5l6 2c1 1 2 5 0 8l-8 7-6 7c-1 2-6 7-13 5 12-1 9-10 6-11-3 0-6 1-7 4-1 2-5 9-14 6 5 0 8-3 8-5s-3-5-7-4c-4 3-4 8-12 6 5 0 7-3 6-5-1-1-3-2-5-1l-8 5c-1 2-5 6-10 2 5 1 7-2 6-3s-3-3-6-2l-6 3c-2 1-7 2-10-3 9 4 6-3 5-4s-6-3-6-8c0-4 3-9 6-11l5-5v-4zm3-54c-1-2-2-6 0-8l3-1s0 0 0 0l1-1-3-1c-2 0-7 2-11 7-5 4-8 15-12 19s-9 1-15 3c-5 2-10 11-23 4 6 7 18 6 22 5 4-2 8-5 14-3 5 1 10-1 14-4 4-4 6-11 8-14l5-3v-2l-3-1z"/><path d="M490 521s-5-1-8 2c-2 3-1 5-4 7s-6 0-9 4c-4 4-5 11-7 13-3 2-12 2-12 2s6 2 12 1c7-2 11-14 26-16-15 4-10 11-18 15l-8 3s5 2 12-2c5-3 7-5 9-4 3 0 11 1 14-2 4-2 6-4 7-8l-2-6s-6 1-9-3l-3-6zm-71 85c-2 2-4 1-6 0l-2-2a4 4 0 10-5-7l-2 3c0 2-1 5 2 7 3 3 8 4 11 3 2 0 3-1 3-2l2-7s-1 4-3 5z"/></g><g fill="#93aa5e"><path d="M532 522s1 7-4 7c-4-1-4-6-4-6l8-1z"/><path d="M515 526s1 5 6 4c4-1 3-7 3-7l-9 3z"/><path d="M515 526s1 3-2 4c-5 3-7-1-7-1l4-3h5zm-19 3s-1 4 3 5c4 0 7-3 7-5h-10zm-5-6s-2 1-2 3l2 4c3 2 5-1 5-1l-3-3-2-3zm0-6s-4-1-5 0v6h5l-1-4 1-2zm3-5s-3-3-5-2c-2 0-3 2-3 4l4 2 1 1 2-3 1-2z"/><path d="M497 506l-3-2c-2-1-5-2-5 0v5l3 2 2 1 1-4 2-2zm4-2s-1-4-3-4c-2-1-4 0-4 2l2 3 1 1 4-2z"/><path d="M505 499l-3-2c-2 0-3 1-3 2l1 3 1 2 3-2 1-3z"/></g><path d="M503 521s3-6 10-8c6-1 16 3 15-5 0-2-2-9 8-10-6 2-3 7-3 7l4-3c2 0 6 1 6-4 2 9-6 5-8 11-1 2 1 8-5 10-4 2-10-2-14-2-3 0-6 5-8 6s-5-2-5-2zm20-28s0 0 0 0l3-3c1-3 1-4 4-5h3c1 0 2-2 1-3 0-3-2-7-5-7s-5 1-5 2l-2 4c-1 0-3-1-5 2-2 2-2 4 0 6l6 4z" fill="#da251c"/><path d="M518 496c2 2 8 7 1 12 1-6-3-5-4-6-2-2 0-5 3-6zm13-8c1 0 7 3 2 8 0-4-3-4-4-4-1-1 0-4 2-4zm-20-6a13 13 0 015-3l-2-3c-3 0-4 2-4 3l1 3zm-2 14s-1-4-4-5c-2 0-4 2-4 3 0 2 0 4 2 5h3l1-2 2-1zm18-9s-1-4-4-3c-1 0-2 2-1 3 1 2 4 2 4 2l1-1v-1zm3-2s-3-3-3-4c1-2 3-2 3-2 3 2 2 5 2 5l-2 1z" fill="#fff"/><path d="M528 494c-2 1-6 1-8 3-3 1-3 7-6 9s-7-1-9 2v5c-1 2-3 2-3 4l2 5 5-1 7-4 10 2c3 0 7-1 8-3 0-2 1-2 2 0 0 1 0 5-2 6l-10 2c-2 1-4 3-8 3-4-1-5 0-8 1-2 1-7 3-10 2-2 0-6-3-7-7-2-3-2-6 1-9l4-8 8-4c1-1 0-5 4-7h11c3-1 6-2 7-5s1-4 4-5 4 1 4 2l-4 3c-2 2 0 3-2 4z" stroke-width="1.4" fill="#fff"/><path d="M506 495a1 1 0 11-2 0 1 1 0 012 0zm8-16a1 1 0 01-2 0 1 1 0 112 0z"/><path d="M433 635l3-3h-2c1 2-1 3-1 3zm-12 0s2-2 2-4-2-1-1 1l-1 3zm-12-2s3-1 5-3c1-2-2-2-2 0l-3 3zm117-91a1 1 0 11-2 0 1 1 0 012 0zm14-6a1 1 0 11-3 0 1 1 0 013 0zm-9 33s2-3 0-6c-1-1-3 1-1 2s1 4 1 4zm12-11s0-3-2-5c-2-1-3 1-1 2 3 1 3 3 3 3zm10-6s1-3-1-5c-2-1-3 1-1 2 2 0 2 3 2 3zm6-10s-1-2-3-3v1l3 2zm2-9s-1-2-3-2v1c2-1 3 1 3 1zm-120 33a1 1 0 11-3 0 1 1 0 013 0zm-26 2a2 2 0 11-4 0 2 2 0 014 0zm16 44a2 2 0 11-4 0 2 2 0 014 0zm-29 3a2 2 0 11-3 0 2 2 0 013 0zm-12 10a2 2 0 11-4 0 2 2 0 014 0zm-24-21s4 1 5 4c0 2-3 2-2 0 0-3-3-4-3-4zm-5 6s4 0 6 4c1 2-2 3-2 0-1-3-4-4-4-4zm-3 10s4-2 6 0 0 4-1 2c-2-3-5-2-5-2zm5 8s2-1 5 0c1 2 0 3-1 2-2-3-4-2-4-2zm6 10s3 2 6 1 1-4-1-2-5 1-5 1zm10 10s2 1 5 0c1-2 0-3-2-2-1 3-3 2-3 2zm123-59a2 2 0 11-3 0 2 2 0 013 0zm17 8a1 1 0 11-3 0 1 1 0 013 0zm-35-17a2 2 0 11-4 0 2 2 0 014 0zm-16 34s3-2 3-5c0-2-3-2-2 1 1 2-1 4-1 4zm16 1s2-3 1-6c0-2-3-1-2 1 2 3 1 5 1 5zm15-2s2-1 1-4c0-1-2-1-1 1v3zm14 1s1-2 0-4c0-2-2 0-1 1 2 1 1 3 1 3zm16 0s1-3 0-5c-1-1-3 0-1 1 2 2 1 4 1 4zm-118-14a2 2 0 11-4 0 2 2 0 014 0z" fill="#f4e109" stroke="none"/><path d="M436 585c-14 1-16 22-16 22h1s1-18 15-22zm125-70c1-3 4-2 6-1l-6 1zm8-1c1-2 4-2 6 0h-6zm-65 32c7 10 4 18 0 29 5-6 9-21 0-29z"/><path d="M509 540c-3 11 0 29 6 35-4-7-7-17-6-35zM395 655c5 0 5 4 5 4l-1-1s1-2-4-3zm5-1c4-1 4 3 4 3l-1-1s1-2-3-2zm4-3c4-1 4 3 4 3l-1-1s0-2-3-2zm52-15s0-5-5-3c4-1 4 2 4 2l1 1zm3-5s1-4-4-2c4-1 4 2 4 2h0zm4-4s-1-4-5-2c4 0 4 2 4 2h1zm89-37c1-5 6-6 6-6l2 1s-5-1-8 5zm2 5c3-7 8-4 8-4l-1 1s-3-3-7 3zm-4 6c7-6 9 1 9 1l-1-1s-2-4-8 0zm-43-111c1-7 7-10 8-10l5-2c1-1 3-3 5-3h4v1h-5l-4 3-6 2c-2 1-5 2-7 9zm6 30c3 0 5 4 9 4l2-1h5-4l-1 1h-4l-7-4z"/></g><use xlink:href="#b" transform="matrix(-1 0 0 1 1194 0)"/></svg>