<svg xmlns="http://www.w3.org/2000/svg" xmlns:xlink="http://www.w3.org/1999/xlink" width="1163" height="776" viewBox="0 0 930 621"><defs><linearGradient id="b"><stop offset="0" stop-color="#534332"/><stop offset="1"/></linearGradient><linearGradient id="c"><stop offset="0"/><stop offset="1" stop-opacity="0"/></linearGradient><linearGradient id="d"><stop offset="0"/><stop offset="1" stop-opacity="0"/></linearGradient><linearGradient id="e"><stop offset="0" stop-color="#141210" stop-opacity=".2"/><stop offset="1" stop-color="#4d4d4d" stop-opacity="0"/></linearGradient><linearGradient id="f"><stop offset="0"/><stop offset="1" stop-opacity=".2"/></linearGradient><linearGradient id="g"><stop offset="0" stop-color="#140b0e" stop-opacity=".4"/><stop offset="1" stop-color="#4d4d4d" stop-opacity="0"/></linearGradient><linearGradient id="a"><stop offset="0" stop-color="#001031"/><stop offset="1" stop-color="#103973"/></linearGradient><linearGradient id="j" x1="168" x2="168" y1="52" y2="178.6" gradientTransform="matrix(2.08227 0 0 2.10404 2612 257)" gradientUnits="userSpaceOnUse" xlink:href="#a"/><radialGradient id="k" cx="45.9" cy="434.9" r="72.6" fx="45.9" fy="434.9" gradientTransform="matrix(.51564 -.37112 .67392 .93634 -911 -875)" gradientUnits="userSpaceOnUse" xlink:href="#b"/><radialGradient id="l" cx="264.4" cy="-685.9" r="6.2" fx="264.4" fy="-685.9" gradientTransform="matrix(1.06162 -.74561 .28436 .40488 1175 1154)" gradientUnits="userSpaceOnUse" xlink:href="#c"/><radialGradient id="m" cx="251.7" cy="-685.4" r="3.3" fx="251.7" fy="-685.4" gradientTransform="matrix(.70073 -.38597 .91155 1.65492 1699 1911)" gradientUnits="userSpaceOnUse" xlink:href="#d"/><radialGradient id="n" cx="262.1" cy="-675.5" r="6.2" fx="262.1" fy="-675.5" gradientTransform="matrix(.8 0 0 .87861 1050 1281)" gradientUnits="userSpaceOnUse" xlink:href="#e"/><radialGradient id="o" cx="268.5" cy="-679.3" r="5" fx="268.5" fy="-679.3" gradientTransform="matrix(.36663 .09364 -.16012 .6269 1057 1085)" gradientUnits="userSpaceOnUse" xlink:href="#f"/><radialGradient id="p" cx="263.3" cy="-674.9" r="6.2" fx="263.3" fy="-674.9" gradientTransform="matrix(.85804 .2726 -.93445 2.94127 412 2606)" gradientUnits="userSpaceOnUse" xlink:href="#g"/></defs><path fill="#c1003e" d="M6 614l919 2 2-84H618v-12h309l-2-73-308-1 1-12 307-1v-73H617l1-12 310-1v-74H619l-1-12h309l1-74H618l1-12h308v-74H617l1-12h310l-1-84L4 6z"/><path fill="none" stroke="#ffbd00" stroke-width="6.4" d="M3 3h87v614H3z"/><path fill="none" stroke="#ffbd00" stroke-width="3.2" d="M18 272l29 38 29-38V105l-29 38-29-38z"/><path fill="none" stroke="#ffbd00" stroke-width="3.2" d="M28 272l19 24 18-24V134l-18 25-19-25zm48 77l-29-39-29 39v167l29-38 29 38z"/><path fill="none" stroke="#ffbd00" stroke-width="3.2" d="M65 349l-18-24-19 24v137l19-24 18 24z"/><path fill="#003f57" stroke="#ffbd00" stroke-width="3.2" d="M18 292l14 18-14 19zm58 0l-14 18 14 19zM47 126l-16-21h31zm0 369l-16 21h31zm0-463L32 47l15 15 15-15z"/><path fill="none" stroke="#ffbd00" stroke-width="3.2" d="M47 19L19 47l28 28 28-28z"/><path fill="none" stroke="#ffbd00" stroke-width="3.2" d="M18 18v58h58V18z"/><path fill="#003f57" stroke="#ffbd00" stroke-width="2.4" d="M24 24h10L24 34zm0 46V60l10 10zm46-46v10L60 24zm0 46H60l10-10z"/><path fill="#003f57" stroke="#ffbd00" stroke-width="3.2" d="M47 559l-15 15 15 15 15-15z"/><path fill="none" stroke="#ffbd00" stroke-width="3.2" d="M47 546l-28 28 28 28 28-28z"/><path fill="none" stroke="#ffbd00" stroke-width="3.2" d="M18 545v58h58v-58z"/><path fill="#003f57" stroke="#ffbd00" stroke-width="2.4" d="M24 551h10l-10 10zm0 46v-10l10 10zm46-46v10l-10-10zm0 46H60l10-10z"/><path fill="none" stroke="#ffbd00" stroke-width="6.4" d="M3 618v-87h614v87z"/><path fill="none" stroke="#ffbd00" stroke-width="3.2" d="M272 603l38-29-38-29H105l38 29-38 29z"/><path fill="none" stroke="#ffbd00" stroke-width="3.2" d="M272 592l24-18-24-18H134l25 18-25 18zm77-47l-39 29 39 29h167l-38-29 38-29z"/><path fill="none" stroke="#ffbd00" stroke-width="3.2" d="M349 556l-24 18 24 18h137l-24-18 24-18z"/><path fill="#003f57" stroke="#ffbd00" stroke-width="3.2" d="M292 603l18-14 19 14zm0-58l18 14 19-14zm-166 29l-21 16v-32zm369 0l21 16v-32z"/><path fill="none" stroke="#ffbd00" stroke-width="6.4" d="M530 3h87v614h-87z"/><path fill="none" stroke="#ffbd00" stroke-width="3.2" d="M545 272l29 38 29-38V105l-29 38-29-38z"/><path fill="none" stroke="#ffbd00" stroke-width="3.2" d="M556 272l18 24 18-24V134l-18 25-18-25zm47 77l-29-39-29 39v167l29-38 29 38z"/><path fill="none" stroke="#ffbd00" stroke-width="3.2" d="M592 349l-18-24-18 24v137l18-24 18 24z"/><path fill="#003f57" stroke="#ffbd00" stroke-width="3.2" d="M545 292l14 18-14 19zm58 0l-14 18 14 19zm-29-166l-16-21h32zm0 369l-16 21h32zm0-463l-15 15 15 15 15-15z"/><path fill="none" stroke="#ffbd00" stroke-width="3.2" d="M574 19l-28 28 28 28 28-28z"/><path fill="none" stroke="#ffbd00" stroke-width="3.2" d="M545 18v58h58V18z"/><path fill="#003f57" stroke="#ffbd00" stroke-width="2.4" d="M551 24h10l-10 10zm0 46V60l10 10zm46-46v10l-10-10zm0 46h-10l10-10z"/><path fill="#003f57" stroke="#ffbd00" stroke-width="3.2" d="M574 559l-15 15 15 15 15-15z"/><path fill="none" stroke="#ffbd00" stroke-width="3.2" d="M574 546l-28 28 28 28 28-28z"/><path fill="none" stroke="#ffbd00" stroke-width="3.2" d="M545 545v58h58v-58z"/><path fill="#003f57" stroke="#ffbd00" stroke-width="2.4" d="M551 551h10l-10 10zm0 46v-10l10 10zm46-46v10l-10-10zm0 46h-10l10-10z"/><path fill="none" stroke="#ffbd00" stroke-width="6.4" d="M3 90V3h614v87z"/><path fill="none" stroke="#ffbd00" stroke-width="3.2" d="M272 76l38-29-38-29H105l38 29-38 29z"/><path fill="none" stroke="#ffbd00" stroke-width="3.2" d="M272 65l24-18-24-19H134l25 19-25 18zm77-47l-39 29 39 29h167l-38-29 38-29z"/><path fill="none" stroke="#ffbd00" stroke-width="3.2" d="M349 28l-24 19 24 18h137l-24-18 24-19z"/><path fill="#003f57" stroke="#ffbd00" stroke-width="3.2" d="M292 76l18-14 19 14zm0-58l18 14 19-14zM126 47l-21 15V31zm369 0l21 15V31z"/><path fill="none" stroke="#ffbd00" stroke-width="3.2" d="M891 28l-18 19 18 19H654l18-19-18-19h237z"/><path fill="none" stroke="#ffbd00" stroke-width="3.2" d="M913 18l-27 29 27 29H632l27-29-27-29h281z"/><path fill="#003f57" stroke="#ffbd00" stroke-width="3.2" d="M913 33v28l-13-14zm-281 0v28l13-14z"/><path fill="#ffbd00" fill-rule="evenodd" d="M614 0h6v90h-6zm310 0h6v90h-6z"/><path fill="#ffbd00" fill-rule="evenodd" d="M930 0v6H614V0zm0 87v3H614v-3z"/><path fill="none" stroke="#ffbd00" stroke-width="3.2" d="M891 119l-18 19 18 19H654l18-19-18-19h237z"/><path fill="none" stroke="#ffbd00" stroke-width="3.2" d="M913 109l-27 29 27 29H632l27-29-27-29h281z"/><path fill="#003f57" stroke="#ffbd00" stroke-width="3.2" d="M913 124v28l-13-14zm-281 0v28l13-14z"/><path fill="#ffbd00" fill-rule="evenodd" d="M614 99h6v78h-6zm310 0h6v78h-6z"/><path fill="#ffbd00" fill-rule="evenodd" d="M930 99v3H614v-3zm0 75v3H614v-3z"/><path fill="none" stroke="#ffbd00" stroke-width="3.2" d="M654 592l18-19-18-18h237l-18 18 18 19H654z"/><path fill="none" stroke="#ffbd00" stroke-width="3.2" d="M632 603l27-29-27-29h281l-27 29 27 29H632z"/><path fill="#003f57" stroke="#ffbd00" stroke-width="3.2" d="M632 588v-28l13 14zm281 0v-28l-13 14z"/><path fill="#ffbd00" fill-rule="evenodd" d="M930 621h-6v-90h6zm-309 0h-6v-90h6z"/><path fill="#ffbd00" fill-rule="evenodd" d="M614 621v-6h316v6zm0-87v-3h316v3z"/><path fill="none" stroke="#ffbd00" stroke-width="3.2" d="M891 292l-18 19 18 19H654l18-19-18-19h237z"/><path fill="none" stroke="#ffbd00" stroke-width="3.2" d="M913 281l-27 29 27 30H632l27-30-27-29h281z"/><path fill="#003f57" stroke="#ffbd00" stroke-width="3.2" d="M913 297v27l-13-14zm-281 0v27l13-14z"/><path fill="#ffbd00" fill-rule="evenodd" d="M614 272h6v78h-6zm310 0h6v78h-6z"/><path fill="#ffbd00" fill-rule="evenodd" d="M930 272v3H614v-3zm0 74v3H614v-3z"/><path fill="none" stroke="#ffbd00" stroke-width="3.2" d="M891 206l-18 19 18 19H654l18-19-18-19h237z"/><path fill="none" stroke="#ffbd00" stroke-width="3.2" d="M913 195l-27 29 27 29H632l27-29-27-29h281z"/><path fill="#003f57" stroke="#ffbd00" stroke-width="3.2" d="M913 210v28l-13-14zm-281 0v28l13-14z"/><path fill="#ffbd00" fill-rule="evenodd" d="M614 185h6v78h-6zm310 0h6v78h-6z"/><path fill="#ffbd00" fill-rule="evenodd" d="M930 185v3H614v-3zm0 75v3H614v-3z"/><path fill="none" stroke="#ffbd00" stroke-width="3.2" d="M891 378l-18 19 18 19H654l18-19-18-19h237z"/><path fill="none" stroke="#ffbd00" stroke-width="3.2" d="M913 367l-27 30 27 29H632l27-29-27-30h281z"/><path fill="#003f57" stroke="#ffbd00" stroke-width="3.2" d="M913 383v28l-13-14zm-281 0v28l13-14z"/><path fill="#ffbd00" fill-rule="evenodd" d="M614 358h6v78h-6zm310 0h6v78h-6z"/><path fill="#ffbd00" fill-rule="evenodd" d="M930 358v3H614v-3zm0 74v3H614v-3z"/><path fill="none" stroke="#ffbd00" stroke-width="3.2" d="M891 465l-18 18 18 19H654l18-19-18-18h237z"/><path fill="none" stroke="#ffbd00" stroke-width="3.2" d="M913 454l-27 29 27 29H632l27-29-27-29h281z"/><path fill="#003f57" stroke="#ffbd00" stroke-width="3.2" d="M913 469v28l-13-14zm-281 0v28l13-14z"/><path fill="#ffbd00" fill-rule="evenodd" d="M614 444h6v78h-6zm310 0h6v78h-6z"/><path fill="#ffbd00" fill-rule="evenodd" d="M930 444v3H614v-3zm0 75v3H614v-3z"/><g stroke="#3c3c3c" stroke-width=".2"><path fill="#d2281e" d="M151 357v21h21c4 0 6-2 6-5v-3l2-3-2-2v-4c0-2-2-4-6-4h-21z" transform="matrix(1.741 0 0 1.64406 554 -556)"/><path fill="#fff" d="M837 30v15h-20v5h20v14h5V50h22l3-3-3-2h-22V30h-5z" stroke="none"/><path fill="none" stroke-linejoin="round" stroke-width=".3" d="M188 446v26h27c4 0 7-2 7-6v-4l3-3-3-3v-4c0-4-3-6-7-6h-27z" transform="matrix(1.3928 0 0 1.31524 554 -556)"/></g><g transform="matrix(1.76 0 0 1.7648 166 -1167)"><path fill="#1944c4" d="M370 977v19h21c3 0 6-2 6-4v-3l2-2-2-3v-3c0-2-3-4-6-4h-21z"/><path fill="#ffdc01" d="M381 977v8h-11v3h11v8h3v-8h13l2-1-2-2h-13v-8h-3z"/><path fill="none" stroke="#3c3c3c" stroke-linejoin="round" stroke-width=".2" d="M370 977v19h21c3 0 6-2 6-4v-3l2-2-2-3v-3c0-2-3-4-6-4h-21z"/><g id="h"><path fill="#f00d08" d="M192 1019l-4-3c-3-2-6-7-6-10l-1-2v-8l1-3c0-2 6-8 10-9s4-3 0-5c-7-3-10-8-10-16l-1-4v-2c0-3 4-5 9-6 4-1 5-2 3-4-1-2-1-3 1-2 5 3 2-4-4-10-5-6-6-7-7-11 0-3 0-3 2-1 5 3 7 1 5-5l-1-5-2-3c-4-6-1-6 4-1 10 10 17 13 17 6 0-4 2-11 4-11l1 3c2 4 7 10 13 15l9 9c5 6 5 6 6 1 0-4 0-4 2-5 3 0 3 0 2-6 0-4 0-4 2-4 3 1 3 1 3-1s1-2 4 0l5 2a790 790 0 0017 5c5 0 8 3 5 6-1 2 0 3 2 3l5-2c2-2 3-2 3 0s-4 7-6 7l-5 3c-4 3-5 3-7 0-1-2-5-2-7-1-6 4-4 13 3 17l7 5c4 5 4 5 7-2l3-8 2-8c0-4 0-4 3-8 4-3 4-3 4 16s0 19-2 18l-2-2c0-2-2 0-4 3-3 6-5 7-9 6-4 0-4 0-5 3a2962 2962 0 01-4 12c-3 8-4 19-2 21 1 2 2 2 7 1l7 1 3 1 4 4c1 1-4 1-19 1l-20-1 1-2 3-2c2-1 2-2 4-1 3 1 3 1 3-1l-3-5c-2-5-2-5-11-2h-23c-4 0-4 0-6 6-3 7-21 11-25 7zm13-12c2-3 2-5 0-6-7-2-12 4-7 8 2 1 5 1 7-2zm-2-36l-3-5c-3-3-3-4-1-4 3 0 3-5 1-7-3-3-5-1-7 8-2 3-3 4-4 3-1-2-2-1-2 0 0 3 13 10 15 8l1-3z" transform="matrix(0 -.06733 .07135 0 309 1008)"/><path fill="#cf0c0b" d="M192 1019l-4-3c-3-2-6-7-6-10l-1-2v-8l1-3c0-2 6-8 10-9s4-3 0-5c-7-3-10-8-10-16l-1-4v-2c0-3 4-5 9-6 4-1 5-2 3-4-1-2-1-3 1-2 5 3 2-4-4-10-5-6-6-7-7-11 0-3 0-3 2-1 5 3 7 1 5-5l-1-5-2-3c-4-6-1-6 4-1 10 10 17 13 17 6 0-4 2-11 4-11l1 3c2 4 7 10 13 15l9 9c5 6 5 6 6 1 0-4 0-4 2-5 3 0 3 0 2-6 0-4 0-4 2-4 3 1 3 1 3-1s1-2 4 0l5 2a790 790 0 0017 5c5 0 8 3 5 6-1 2 0 3 2 3l5-2c2-2 3-2 3 0s-4 7-6 7l-5 3c-4 3-5 3-7 0-1-2-5-2-7-1-6 4-4 13 3 17l7 5c4 5 4 5 7-2l3-8 2-8c0-4 0-4 3-8 4-3 4-3 4 16s0 19-2 18l-2-2c0-2-2 0-4 3-3 6-5 7-9 6-4 0-4 0-5 3a2962 2962 0 01-4 12c-3 8-4 19-2 21 1 2 2 2 7 1l7 1 3 1 4 4-7 1-7-1c0-1-1-2-3-2-6-1-9-6-7-13 3-13 1-27-5-34l-2-4-1-4-1-4c1-1 0-2-1-3l-1-9c0-7-1-9-3-9-1 0-1-3 1-5 1-1 3-1 4 1l4 1c3 0 4-1 2-1-2-1-3-3-1-4s2-3 0-4l-2-2c0-2 0-2-1-1l-2 3c0 2-3 5-5 5l-2 4-2 4c-1 2 0 13 1 13l1 2 1 2c2 2 1 4-1 4-2-1-3 0-4 3-4 6-11 2-11-8v-2c-2 2-1 13 1 13l3 4v8l-2 3c0 2-4 5-6 5-1 0-2 0-3 2-2 2-4 2-6 0-1-2-1-2-16-2-14-1-20 4-20 16 0 13 16 23 21 13 1-3 1-3-3-2-11 1-13-10-2-16 5-2 6-2 9 0l3 2c2 0 3 0 4 3 1 1 4 2 5 0 1 0-1-3-3-3-2-1 12-1 17-1 3 1 4 1 4 3s1 2 2 1c2-1 2-2 1-3-2-2-1-2 2-3s3-1 3 1c-1 3 0 3 2 1 2-1 2-1 0-2l-1-3c0-1-2-1-5 1s-6 2-5 0l3-3c3-1 4-3 6-5 3-7 6-5 6 3l2 7 2 4 3 7c3 7 4 9 2 11l-1 2-6 1c-6 0-9-2-5-3l3-2c2-1 2-2 4-1 3 1 3 1 3-1l-3-5c-2-5-2-5-11-2h-23c-4 0-4 0-6 6-3 7-21 11-25 7zm13-12c2-3 2-5 0-6-7-2-12 4-7 8 2 1 5 1 7-2zm26-5c1 1 5-1 4-2h-10c-2 2 0 3 2 2h4zm-8-22l-3-1c-1 1-1 1 1 2 3 1 4 1 2-1zm-29-5l-6-5h-2c1 3 3 4 7 6 5 3 5 2 1-1zm20-1l2-2c3-1 1-2-4-3h-5c-2 2-1 5 2 6 4 1 5 0 5-1zm-11-3l-3-5c-3-3-3-4-1-4 3 0 3-5 1-7-3-3-5-1-7 8-2 3-3 4-4 3-1-2-2-1-2 0 0 3 13 10 15 8l1-3zm62-4l3-2-2-1-2-2-1-2c0-2-1-3-4-3-1 0-2 4 0 5l1 3c0 3 0 3 5 2zm19-1c2-2 4-7 2-7l-2 3-1 4c-2 2-1 2 1 0zm-71-3c7-2 6-3-3-6-6-1-5-2-5 3 0 4 0 5 2 4l6-1zm78-8v-2c1-3-1-4-2-1-2 3-1 5 0 4l2-1zm-100-1h-2v1l2-1zm68-4c-1-1-3 1-2 3 0 1 1 1 2-1v-2zm-45-1v-3l-14-9c-5-1-6-1-4 2l3 5c0 4 1 5 3 5l11 2c1 1 2-1 1-2zm17-8c-2-4-5-6-8-9-2-1-2-1 0 1l2 3 6 9 1 1c1-1 0-3-1-5zm26 3s0-1 0 0l-1 1 1 1v-2zm-46-11c0-1-9-9-11-9l-4-3c-3-3-3-3-3 0v4c-1 1 7 6 12 7l3 1h3zm61-6l1-1-1-1-3 2c-1 2-1 2 1 2l2-2zm-10 92h9l-4 1-5-1zm-28-25h2l-1 1-1-1z" transform="matrix(0 -.06733 .07135 0 309 1008)"/><path fill="#af0c0b" d="M192 1019l-4-3c-3-2-6-7-6-10l-1-2v-8l1-3c0-2 6-8 10-9s4-3 0-5c-7-3-10-8-10-16l-1-4v-1l8-2c3 0 6-3 5-4l-9 3h-4c0-1 6-4 9-4 4-1 5-2 3-4-1-2-1-3 1-2 5 3 2-4-4-10-5-6-6-7-7-11 0-3 0-3 2-1 5 3 7 1 5-5l-1-5-2-3c-4-6-1-6 4-1 10 10 17 13 17 6 0-4 2-11 4-11l1 3c2 4 7 10 13 15l9 9c5 6 5 6 6 1 0-4 0-4 2-5 3 0 3 0 2-6 0-4 0-4 2-4 3 1 3 1 3-1s1-2 4 0l5 2a790 790 0 0017 5c5 0 8 3 5 6-1 2 0 3 2 3l5-2c2-2 3-2 3 0s-4 7-6 7l-5 3c-4 3-5 3-7 0-1-2-5-2-7-1-6 4-4 13 3 17l7 5c4 5 4 5 7-2l3-8 2-8c0-4 0-4 3-8 4-3 4-3 4 16s0 19-2 18l-2-2c0-2-2 0-4 3-3 6-5 7-9 6-4 0-4 0-5 3a2962 2962 0 01-4 12c-3 8-4 19-2 21 1 2 2 2 7 1l7 1 3 1c3 0 5 5 3 5l-3-1h-2c-1 1-7 1-7-1l-5-2c-6-1-7-4-5-15v-11l1-4v-5c-2-5-3-8-5-9-1-2 0-3 5-3 3 0 4-2 2-4l-1-3-1-1-1-2-3-3-1-3-2-5-1-3-1-3-2-2-3-4c-2-2-2-2-1-3h3c1 2 6 3 9 1h3l2 1-1-1c-2-3-1-4 3-4 2 0 3-1 3-2 1-2 3-3 4-1 2 2 2 2 2 0s0-2-4-2l-4-1c-1 0-2 0-2 2 0 1-3 2-3 0h-1l-1 1 1 1v1l-1-1-2-2-1-1c-3-1-2-3 1-3l2-1h-11c-2-1-3 0-1 2 4 2 1 7-3 6l-2 3-1 6c-2 3-1 15 2 16l1 3c0 2-1 2-2 1 0-2-1-1-3 3-4 7-10 2-10-8s-6-20-15-24c-3-1-5-1-2 1a40 40 0 0112 13c2 0 4 6 3 8-2 3-1 14 1 14 3 1-1 5-8 7-2 1-3 3-2 3l5-2c6-4 12-1 8 4l-2 3c0 2-2 3-4 3-2-1-2 0-4 2s-4 3-4 1l-6-2h-10c-16 0-25 7-23 18l1 5c1 7 12 13 20 11 4-2 7-3 6-4v-4c0-4-1-5-4-1-3 5-13 2-13-4s12-12 16-7l3 1c1-1 3 0 3 1 0 2 2 3 5 2l4 1h3c2-1 3-1 3 1 0 1 1 1 5-1 3-3 3-3 3-1 0 3 3 2 5 0 2-3 3-3 3-1l1 1 1-1 2-3v-4c-1-2 0-3 2-1 2 0 3 2 3 5l5 9c4 8 3 12-3 9l-3 1-3 1-1 1-1 1 1-3 3-2c2-1 2-2 4-1 3 1 3 1 3-1l-3-5c-2-5-2-5-11-2h-23c-4 0-4 0-6 6-3 7-21 11-25 7zm13-12c2-3 2-5 0-6-7-2-12 4-7 8 2 1 5 1 7-2zm21-26l2-1 3-1c1-2 1-2-2-1l-9 1c-6 0-7 0-6 2l4 1h4c1 1 4 0 4-1zm-28-3l-4-3-6-5-3-2c0 3 3 7 8 9 6 3 6 3 5 1zm17-3l2-2c2 0 3-3 1-4-1-1-1-1 3-2 6-2 6-1 5-2-2-2-13 0-15 2l-3 1c-3-2 0-4 7-5 8-1 6-4-4-7l-2-1h-2c-3 0-3 0-3 5l1 6v5c0 4 0 4 3 5 6 1 8 1 7-1zm-12-4l-3-5c-3-3-3-4-1-4 3 0 3-5 1-7-3-3-5-1-7 8-2 3-3 4-4 3-1-2-2-1-2 0 0 3 13 10 15 8l1-3zm66 1l1-1h-5v2h2l2-1zm15-4c2-1 3-2 3-5 0-2 2-3 3-1s2 1 2-5a171 171 0 011-13l-1 1c0 3-1 5-2 5l-2 2-3 6-1 4c0 5-5 6-9 2-1-1-2-3-3-2s7 8 9 7l3-1zm-57-12l-5-1c-5 0-5 0-1 1h6zm-21-5c0-1 3-1 7 1 3 0 4-3 3-4l-1-3c1-1 0-1-4-3-3-1-4-2-3-3s13 5 16 8c4 3 5 3 2-1l-16-9c-3-1-1-2 2-2s3 0 2-1l-1-2-5-4-5-4-2-1c-2 0-4-2-2-3 1-1 1-1-1-2h-1l-1 1-2-2c-1-4-2-3-2 4 0 6 0 6 5 8l9 4 2 1-2 2-2 1c-2 1-8-2-11-4-3-3-2 0 1 4 3 3 4 5 4 7 1 5 1 7 3 6s4-1 3 1h2zm44-27l-1-1c-1 1 0 3 1 3v-2zm-34-3c-2-4-4-7-5-5-1 1 0 2 2 4 3 4 5 4 3 1zm-13 0l-1-1-1 1c1 2 2 2 2 0zm49 98c1-1 5-2 7-1 3 1 2 2-3 2l-4-1zm11 0l2-1 2 1-2 1-2-1zm-13-30l-1-7c2-1 4 3 4 5-1 3-2 4-3 2zm4-37c-1-4 0-7 1-4l1 2v3c0 2-2 2-2-1z" transform="matrix(0 -.06733 .07135 0 309 1008)"/><path d="M192 1019l-4-3c-3-2-6-7-6-10l-1-2v-8l1-3c0-2 6-8 10-9s4-3 0-5c-7-3-10-8-10-16l-1-4v-1h6l2-1c2 1 6-3 5-4-1-2-4-1-9 2h-4c0-1 6-4 9-4 4-1 5-2 3-4-1-2-1-3 1-2 5 3 2-4-4-10-5-6-6-7-7-11 0-3 0-3 2-1 5 3 7 1 5-5l-1-5-2-3c-4-6-1-6 4-1 10 10 17 13 17 6 0-4 2-11 4-11l1 3c2 4 7 10 13 15l9 9c5 6 5 6 6 1 0-4 0-4 2-5 3 0 3 0 2-6 0-4 0-4 2-4 3 1 3 1 3-1s1-2 4 0l5 2a790 790 0 0017 5c5 0 8 3 5 6-1 2 0 3 2 3l5-2c2-2 3-2 3 0s-4 7-6 7l-5 3c-4 3-5 3-7 0-1-2-5-2-7-1-6 4-4 13 3 17l7 5c4 5 4 5 7-2l3-8 2-8c0-4 0-4 3-8 4-3 4-3 4 16s0 19-2 18l-2-2c0-2-2 0-4 3-3 6-5 7-9 6-4 0-4 0-5 3a2962 2962 0 01-4 12c-3 8-4 19-2 21 1 2 2 2 7 1l7 1 3 1c2 0 5 4 3 5l-2-1h-8c-1 2-2 1-1 0 0-2-1-2-4-3-7-1-8-4-6-16v-13c2-3 2-6 1-7l-2-2v-4l2 3c3 5 5 5 3 1-2-3-2-5 0-5l1-1-2-7-1-2c0-2-3-6-5-7-1-1-2-1-2-3l-1-5-1-5v-5c-1-2-1-2 1-2l4-1h5l-1-1c-2-2-1-4 1-4 3 0 5-1 5-2l1-1c2-1 2 0 1 2v2l3-1c3-2 1-6-5-6l-6-2c-2-2-7-3-10-2h-7c-5-1-5 0-3 3 1 3 5 5 5 2 1 1-1 4-4 3-3 0-8 2-7 4v3l1-1 2-3c2 0 2 4 0 7s0 14 2 17c2 2 2 3 0 2-1-1-2 0-4 5-3 5-8-1-8-10 0-10-7-20-16-24a103 103 0 01-10-4c-1 0-14-8-16-11-2-2-3-1-2 3l1 11c-1 3-1 3-3 1-5-5-3 0 4 8l4 8c0 6 3 8 5 6h2l-1 1v10l1 5 1 5c0 5 0 5 2 5s8 6 8 7h-9c-18 0-24 6-23 21 1 8 8 14 15 14l3 1h-9zm88-4l-1-1h-1l-1 1 1 1 2-1zm-80-36c0-2-2-3-6-5l-7-5c-4-4-4-3-1 3 2 4 14 11 14 7zm3-8l-3-5c-3-3-3-4-1-4 3 0 3-5 1-7-3-3-5-1-7 8-2 3-3 4-4 3-1-2-2-1-2 0 0 3 13 10 15 8l1-3zm79-1l3-2 2-4c1-3 1-3 3-1s3 0 2-5l1-8v-8c-1 0-2 2-2 5l-1 2-3 4-2 6-2 3c0 5-5 5-8 2-3-5-6-6-3-2 4 8 7 10 10 8zm-4-32c1-1 0-1-3-2-3 0-3 0-1 1 2 2 3 3 4 1zm9-4l-1-1-1 1h2zm-65-10l-1-1-3-2-4-5-2-5-1-2c-1-1-1 0-1 4s1 6 2 7c3 5 10 7 10 4zm-19 95l3-1c5 0 8-6 5-12-1-3-2-3-4 1-4 5-9 5-12 1-5-7 9-14 14-8l4 2 3 1h8c2 2 11 2 12 0h2c0 2 2 2 5 1l4-1c1 0 2 0 2-2l1-3 1-2c1-3 2-2 4 1l4 10c4 8 4 11-1 9-2-1-3-1-6 2l-3 1 1-2 3-2c2-1 2-2 4-1 3 1 3 1 3-1l-3-5c-2-5-2-5-11-2h-23c-4 0-4 0-6 6l-6 6c-5 2-10 3-8 1zm2-12c2-3 2-5 0-6-7-2-12 4-7 8 2 1 5 1 7-2zm48 12l3-1 4 1-3 1-4-1zm-3-33l1-1c2 0 1 2 0 3l-1-2zm-27-1v-1h2c0 2-2 3-2 1zm-4-2c-1 0-1-1 1-1l1 1h-2zm12-2l1-2c2-1 2-3-1-3-5 1-10 2-11 1l2-1 5-2c6-4 13-2 8 3l-2 3c0 2-2 3-2 1zm-15-6c-1-1 0-1 1-1l2 1h-3zm4-2l1-2c2 0 2-1 2-2s0-2 3-2c4-2 4-3 0-3l-4-2c0-1-1-3-3-3-3-2 0-3 6-1 5 1 6 1 6 4l1 3c1 1-2 5-4 5l-4 2c-3 2-4 2-4 1zm7-17c-1-2-8-2-13-1-2 1-2-1 0-2l4-1c5-2 5-3 2-5l-1-2c3 0 12 9 12 10-1 2-3 2-4 1zm-21-4c1-2 4-2 5-1 0 1-1 3-4 3-1 0-2-1-1-2zm22-4l-9-7-5-4 5 1h2l-5-5c-6-5-6-6-1-3 3 1 12 9 12 11l1 2c2 1 4 5 4 6 0 2-2 2-4-1zm-19-12l2-1 1 1-1 1-2-1zm-7-2l-6-2c-2 0-3 0-3-2s2-2 5 0l4 2 4 2c2 2-1 2-4 0zm5-8l-1-1 3 1 1 2-3-2zm58 0l-3-2c-3-1-3-2 0-2 5 0 7 1 7 3 0 1-1 2-4 1z" transform="matrix(0 -.06733 .07135 0 309 1008)"/><path fill="#900a0b" d="M194 1019l-1-1-4-2c-4-3-6-7-7-15l-1-1c-1-3 7-15 10-15l-1 1c-13 8-6 32 8 32l3 1h-7zm9 0l3-1c5 0 8-6 5-12-1-3-2-3-4 1-4 5-9 5-12 1-5-7 9-14 14-8l4 2 3 1h8c2 2 11 2 12 0h2c0 2 2 2 5 1l4-1c1 0 2 0 2-2l1-3 1-2c1-3 2-2 4 1l4 10c3 7 4 9 1 10v-2c2-1 2-1-1-7-4-6-4-6-9-4l-8 2c-3 1-10 0-20-1-4 0-4 0-5 3-2 5-3 7-7 10-4 2-9 3-7 1zm2-11c3-4 3-7 0-8-7-2-12 2-10 7 2 4 7 4 10 1zm48 11l3-1 4 1-3 1-4-1zm23 0c0-2-1-2-4-3-6-1-6-2-7-6 0-2 0-2 0 0 2 4 5 6 8 5h4l1 1 2-1-1-1h-1c1-1 8 3 9 5 1 1 1 1-1 1l-1-1h-8c-1 2-2 1-1 0zm-23-3c2-2 2-2 4-1v1h-4c-2 2-2 2 0 0zm13-22v-7c2-3 2-6 1-7l-2-2v-4l2 3c3 5 5 5 3 1-2-3-2-5 0-5l1-1-2-7-1-2c0-2-3-6-5-7-1-1-2-1-2-3l-1-5-1-5v-5c-1-2-1-2 1-2l4-1h5l-1-1c-2-2-1-4 1-4 3 0 5-1 5-2l1-1c2-1 2 4 0 5v1c0 2 2 1 2-1 0-1 0-2 2-2l1-4v-2 6c-2 3 2 4 8 1v2c0 2-1 2-4 3l-5 3c-3 3-3 3-5 1-2-4-8-3-11 0-4 5-1 14 5 16l7 5c4 5 5 5 7 3l1-1c0 4-5 4-8 1-3-5-6-6-3-2 4 8 7 10 10 8l3-2 2-4c1-3 1-3 3-1s3 0 2-5l1-8v-8c-1 0-2 2-2 5l-1 2c-2 0-2 0-1-4l-1-4 2-3c3-3 4-3 4-2v27c-1 5-1 5-3 3l-2-1-4 6c-3 5-4 6-9 4-2-1-3 1-5 7l-2 7-1 3-1 2h-1zm12-56c1-1 0-1-3-2-3 0-3 0-1 1 2 2 3 3 4 1zm9-4l-1-1-1 1h2zm-37 52l1-1c2 0 1 2 0 3l-1-2zm-27-1v-1h2c0 2-2 3-2 1zm-29-1c3-2 3-3-3-6s-8-7-8-14l-1-6h5l2-1c2 1 5-3 5-5v-2l2-2c1-3 1-3 2 0s2 4 4 2h2l-1 1v10l1 5 1 5c0 5 0 5 2 5l8 7-10 1h-11c-1 1-1 0 0 0zm16-3c0-1-3-3-4-2v2c1 2 4 2 4 0zm-10-2c0-2-2-3-6-5l-5-3c-1-2 0-2 2 0 10 7 17 4 11-4-2-3-2-3-1-4 3-2 0-12-4-12-1 0-4 6-5 11-1 4-1 4-3 2-3-1-4 0-3 2v1c-3-2-3 0 0 5 2 4 14 11 14 7zm19 4c-1 0-1-1 1-1l1 1h-2zm12-2l1-2c2-1 2-3-1-3-5 1-10 2-11 1l2-1 5-2c6-4 13-2 8 3l-2 3c0 2-2 3-2 1zm-15-6c-1-1 0-1 1-1l2 1h-3zm4-2l1-2c2 0 2-1 2-2s0-2 3-2c4-2 4-3 0-3l-4-2c0-1-1-3-3-3-3-2 0-3 6-1 5 1 6 1 6 4l1 3c1 1-2 5-4 5l-4 2c-3 2-4 2-4 1zm17-12c-2-2-2-4-2-9 0-10-7-20-16-24a103 103 0 01-10-4c-1 0-14-8-16-11-2-2-3-1-2 2 0 2 0 2-1 1-2-3 0-7 2-4l7 5c8 5 10 5 10-1-1-8 2-12 4-6 2 3 9 11 14 14l8 8c4 6 6 7 6 3 1-3 1-3 1-1s0 2 1 0l2-3c2 0 2 4 0 7s0 14 2 17c2 2 2 3 0 2-1-1-2 0-4 5-2 3-4 2-6-1zm-15-37l-1-1-3-2-4-5-2-5-1-2c-1-1-1 0-1 4s1 6 2 7c3 5 10 7 10 4zm61 36l1-2 1-3 2-3v2c-2 4-4 8-4 6zm-56-4c-1-2-8-2-13-1-2 1-2-1 0-2l4-1c5-2 5-3 2-5l-1-2c3 0 12 9 12 10-1 2-3 2-4 1zm-43-2l6-2h1a310 310 0 00-7 2zm22-2c1-2 4-2 5-1 0 1-1 3-4 3-1 0-2-1-1-2zm22-4l-9-7-5-4 5 1h2l-5-5c-6-5-6-6-1-3 3 1 12 9 12 11l1 2c2 1 4 5 4 6 0 2-2 2-4-1zm-32-7v-1l1 4-1-3zm-6-7c-6-6-7-11-3-9 4 1 5 0 5-5v-1 6l-1 4-2-1c-4-4-3 0 2 6l3 4-4-4zm19 2l2-1 1 1-1 1-2-1zm-7-2l-6-2c-2 0-3 0-3-2s2-2 5 0l4 2 4 2c2 2-1 2-4 0zm40-5l3-1c2-1 2-1 2-4-1-4-1-4 1-1 1 3 5 5 5 2 1 1-1 4-4 3l-5 1h-2zm-35-3l-1-1 3 1 1 2-3-2zm59-1l-3-1-3-1h4c5 0 5-1 2-2-2-1-2-1 0-1l3 2 3 1h-1c-2 0-2 1-2 2 0 2-1 2-3 0zm-13-5h-3c-4 0-5-2-1-2l3-1h2l5 1c4 1 5 2 1 2h-7z" transform="matrix(0 -.06733 .07135 0 309 1008)"/><path fill="#650f13" d="M194 1019l-1-1 7 2-6-1zm9 0l3-1c4 0 8-5 11-13 0-1 5-2 6-1l-2 1c-3 0-3 0-4 4-2 4-3 6-7 9-4 2-8 3-7 1zm50 0h7l-4 1-3-1zm27 0l-1-1h-2l2-1c2 0 2-1 1-3l2 2c5 2 7 4 4 4l-1-1-2-1-2 1v1l-1-1zm-92-4l-3-4 2 3 1 1zm72 0l1-3c-1-2-1-2 0 0 2 1 2 2 0 3h-1zm11 1c1-2 5-2 5-1l-3 1h-2zm-4-2c-2-3-2-3 1-1l1 2-2-1zm-62-6l2-2-2 2-2 2 2-2zm-10 0l-1-2 2 2c1 2 0 2-1 0zm32-2c-2-1 0-1 5-1l11-1h4c3 1-15 3-20 2zm-20-2c1-5-6-6-10-3-2 2-2 2-1 0 1-3 4-3 9-2 4 1 5 2 3 5-1 2-1 2-1 0zm5 1c-3-2-2-3 1-2l2 1c0 1-2 2-3 1zm44-1c-1-2-2-2-6 0v-2c2-1 3-2 2-4-1-4 1-4 2 0l2 5 1 2-1-1zm-75-5l1-2v2h-1zm86-8v-4l2-2 1-3c1-1 1 2-1 6l-1 4c-1 2-1 1-1-1zm-80-3l2-2-2 2-2 2 2-2zm9-6c0-2 0-2 1-1 2 1 2 2 0 2l-1-1zm5 0l1-1c4-1 3-1-3-5-6-3-7-4-1-1 6 2 8-3 4-8-2-3-2-3-1-4 3-2 0-12-4-12-1 0-4 6-5 11-1 4-1 4-3 2h-3l-2-1v3c-1 3-1 3-1-2l-1-6h-1l2 1 3 1 2 2 2 1c1 0 2-2 1-3l2-4c2-3 2-4 1-4v-2l2-2 1-2c0 3 0 4 3 7s3 3 3 8v6c1 1 2 2 1 5 0 4 0 4 3 5l5 3c2 3 2 3-3 3l-8-1zm9-1c0-1-3-3-4-2v2c1 2 4 2 4 0zm-20-3l-4-3 9 4c1 2 0 1-5-1zm81 0v-3c2-2 2-5 1-6l-1-3-2-2v-2l-1-2v-1l5 7 2 3 3 4c3 3 4 2 5-1l2-3c2-1 2-1 1 1-4 6-4 6-8 5s-5 0-6 2l-1 1zm-42-4c0-1 5-2 6-1s1 2-2 2l-4-1zm-2-5c-1-1 1-3 2-3 2 0 2 1 1 3h-3zm61-4c0-2 0-2 2-1 2 2 3 2 3-4l1-10v13c-1 5-1 5-3 3h-3v-1zm-11-1c-2-2-2-2 0 0l3 2h-1l-2-2zm-51-1l1-2c1-1 3-1 3 1l-4 1zm11-2c-2-3-2-3-2-9 0-5 0-7-2-11-2-5-2-5 1-4 1 0 2 0 2 2l1 4c2 0 0-5-4-12-2-2-5-6-9-8-8-6-16-17-13-17l2 4c2 3 9 11 14 14l8 8 5 5 1 1 2 2 1 6 1 7c1 2 1 3-1 6-3 5-4 5-7 2zm36-1l-5-3c-2 1-6-2-6-4l-1-4c-2-3-1-6 0-8l1-3-2-1c0-1 12 0 15 2 2 1 3 1 4-2l4-1h1l-5 3c-3 3-3 3-5 1-2-4-8-3-11 0-4 5-1 14 5 16l7 6-2-2zm-89-6l5-2v1l-5 2-3 1 3-2zm44 1l-3-1-6-1c1-2 8-1 10 0l1 2h-2zm57-1l1-2v2c0 2-1 3-1 0zm-78-2l2-1 1 1-1 1-2-1zm20-6l-7-5c-5-3-6-4-1-2l4 1c3 0 8 6 8 9 0 1-1 1-4-3zm62 0v-4l1-1h-2c0 1 0 1 0 0 0-2 6-7 6-5 1 2 0 8-1 6-1-1-2 0-2 3l-1 3c-1 1-1 1-1-2zm-16-11c-2 0-6-3-6-4 2-2 8-1 8 1l1 2 1 1v1l-4-1zm-48-3c-4-4-4-4 1-2 3 1 4 2 4 4s-2 1-5-2zm54 1c-2 0-2-1 0-3 1-1 1-1 1 1-1 1 0 1 1 1l3 1h-5zm8 0c-2-1-2-1 0-1h2l-2 1zm-45-4l3-1c2-1 2-1 2-4v-1l2 3c1 1 1 2-1 2l-4 1h-2zm-54-3h-2l-1-1h6c1-1 1-1 0 0-1 2-2 3-3 1zm26-1c-2 0-3-2-2-2l5 3-3-1zm52 0l-3-1c-1 0-2 0-1-1s5 0 6 2h-2zm-60-3c-2 0-2 0 1-2 3-1 5 0 3 2h-4zm62 0l-1-2 2 2c2 2 1 2-1 0zm-18-3c-3 0-3 0-2-1l4-1h2l5 1c1 0 3 0 2 1h-11zm-41-5v-2 2zm-19-1c-1-3 0-3 2-1s2 2 0 0c-2-1-2-1-2 1s0 2 0 0z" transform="matrix(0 -.06733 .07135 0 309 1008)"/></g><use width="504" height="336" transform="matrix(1 0 0 -1 0 1973)" xlink:href="#h"/></g><g stroke="#3c3c3c"><path fill="#fff" d="M867 483a25 17 0 01-25 17 25 17 0 01-25-17 25 17 0 0125-17 25 17 0 0125 17z" stroke="none"/><path fill="#d2281e" d="M842 466h-6v14h-19v6h19v14h6v-14h24l1-3-1-3h-24v-14z" stroke="none"/><path fill="none" stroke-width=".4" d="M39 986a14 9 0 01-14 9 14 9 0 01-13-9 14 9 0 0113-9 14 9 0 0114 9z" transform="matrix(1.8005 0 0 1.85086 796 -1342)"/></g><g transform="matrix(0 -1.64554 1.74203 0 -245 1269)"><path fill="#fff" d="M540 609h-20v21c0 4 2 6 4 6h3l3 2 3-2h3c3 0 4-2 4-6v-21z"/><path fill="#008100" d="M520 622v8c0 4 2 6 4 6h3l3 2 3-2h3c3 0 4-2 4-6v-8h-20z"/><path fill="#088ce8" d="M530 609h-10v21c0 4 2 6 4 6h3l3 2v-29z"/><path fill="#ffd000" stroke="#000" stroke-width=".08" d="M520 623v7a10 10 0 000 3s0 0 0 0 0 0 0 0 0 0 0 0 0 0 0 0v1s0 0 0 0l1 1s0 0 0 0 0 0 0 0l1 1s0 0 0 0a4 4 0 001 0s0 0 0 0h5s0 0 0 0 0 0 0 0 0 0 0 0v1h1s0 0 0 0h1v-14h-10z"/><path stroke="#000" stroke-width=".08" d="M525 631l-1 1v4s0 0 0 0h2v-4l-1-1z"/><path d="M523 626v1h-1v-2l1 1zm5 0v1h-1v-1l1-1v1z"/><g id="i" stroke="#000" stroke-width="0"><path fill="#ffd000" d="M486 616v1h0v6h3l-1-6h1v-1h-1v1h0v-1h-1v1h-1v-1h0z" transform="matrix(.9566 0 0 1 56 0)"/><path d="M488 620v1h-1v-2l1 1z" transform="matrix(.9566 0 0 1 56 0)"/></g><use width="504" height="336" transform="translate(3)" xlink:href="#i"/><use width="504" height="336" transform="translate(7)" xlink:href="#i"/><path fill="#ffd000" stroke="#000" stroke-width=".08" d="M520 623v1h10v-1h-10z"/><path fill="none" stroke="#3c3c3c" stroke-linejoin="round" stroke-width=".2" d="M540 609h-20v21c0 4 2 6 4 6h3l3 2 3-2h3c3 0 4-2 4-6v-21z"/><path fill="#ccc" d="M521 615h2v1h-2v-1z"/><path fill="none" d="M521 615h2v1"/><path fill="#b3b3b3" d="M522 614v1h1v-1h-1zm2 0v-1l-1-1h6l-1 1h-3v1h-1z"/><path fill="#ccc" d="M524 614v-1h-1v-1h5l-1 1h-1l-1 1h-1z"/><path fill="#e6e6e6" stroke="#000" stroke-width=".048" d="M523 613a1 1 0 01-1 1 1 1 0 01-1-1 1 1 0 011-1 1 1 0 011 1z"/><path fill="#b3b3b3" d="M525 615h1l-1 1 1-1v-1h-1v1z"/><path fill="#ccc" d="M522 612h1l1 1v1l2-1 1 1 1 1 1 1c0 1 0 0 0 0l-1-1-1-1v1h1v2h-1v-2h-1l-1-1v1h-1 1-3v-2s-1 0 0 0c0 0-1 0 0 0v-1z"/><path fill="none" d="M522 613zm0 0zm0 0zm0 0zm0-1l1 1m0 0v2m0-2v2m0-3v2l1 1"/><path fill="none" d="M523 613h1v1m0-1v1"/><path fill="#ccc" d="M523 615v2l1-1v-1"/><path fill="none" d="M521 615h1l1 1m-1-1v1m1-1h-1m0 0"/><text x="499" y="615" font-family="Bitstream Vera Sans" font-size=".3" transform="skewX(2)"><tspan style="-inkscape-font-specification:Trajan Pro" x="499" y="615" font-family="Trajan Pro">PAX</tspan></text><text x="499" y="616" font-family="Bitstream Vera Sans" font-size=".3" transform="skewX(2)"><tspan x="499" y="616" style="-inkscape-font-specification:Trajan Pro" font-family="Trajan Pro">tibi</tspan></text><text x="499" y="616" font-family="Bitstream Vera Sans" font-size=".3" transform="skewX(2)"><tspan style="-inkscape-font-specification:Trajan Pro" x="499" y="616" font-family="Trajan Pro">mar</tspan></text><text x="499" y="616" font-family="Bitstream Vera Sans" font-size=".3" transform="skewX(2)"><tspan x="499" y="616" style="-inkscape-font-specification:Trajan Pro" font-family="Trajan Pro">ce e</tspan></text><text x="501" y="588" font-family="Bitstream Vera Sans" font-size=".3" transform="matrix(1 .05257 .03535 1.00186 0 0)"><tspan x="501" y="588" style="-inkscape-font-specification:Trajan Pro" font-family="Trajan Pro">van</tspan></text><text x="501" y="588" font-family="Bitstream Vera Sans" font-size=".3" transform="matrix(1 .05257 .03535 1.00186 0 0)"><tspan style="-inkscape-font-specification:Trajan Pro" x="501" y="588" font-family="Trajan Pro">geli</tspan></text><text x="501" y="589" font-family="Bitstream Vera Sans" font-size=".3" transform="matrix(1 .05257 .03535 1.00186 0 0)"><tspan x="501" y="589" style="-inkscape-font-specification:Trajan Pro" font-family="Trajan Pro">sta</tspan></text><text x="501" y="589" font-family="Bitstream Vera Sans" font-size=".3" transform="matrix(1 .05257 .03535 1.00186 0 0)"><tspan style="-inkscape-font-specification:Trajan Pro" x="501" y="589" font-family="Trajan Pro">mevs</tspan></text></g><path fill="#d2281e" d="M867 311c0 9-8 17-19 17h-31c6-11 7-22 0-34h31c11 0 19 7 19 17z"/><path fill="#fff" d="M837 294v14h-15v5h15v15h6v-15h24a15 15 0 000-5h-24v-14z"/><path fill="#fff" d="M829 296l-1 3-2-1 1 2-3 1 3 1-1 2 2-1 1 3 1-3 2 1-1-2 3-1-3-1 1-2-2 1z"/><path fill="none" stroke="#a0a0a0" stroke-width=".4" d="M346 915c0 6-4 10-9 10h-18c4-6 4-13 0-19h18c5 0 9 4 9 9z" transform="matrix(1.8736 0 0 1.70959 218 -1254)"/><path fill="#fff" d="M829 316l-1 2-2-1 1 3h-3l3 1-1 3 2-1 1 2 1-2 3 1-2-3 3-1h-3l2-3-3 1z"/><g stroke="#3c3c3c" stroke-width=".2"><path fill="#1c57a0" stroke-width=".3" d="M188 446v26h27c4 0 7-2 7-6v-4l3-3-3-3v-4c0-4-3-6-7-6h-27z" transform="matrix(1.39417 0 0 1.31107 554 -463)"/><path fill="#ffdc01" d="M837 121v15h-20v5h20v14h5v-14h22l3-3-3-2h-22v-15h-5z" stroke="none"/><path fill="none" stroke-linejoin="round" stroke-width=".3" d="M188 446v26h27c4 0 7-2 7-6v-4l3-3-3-3v-4c0-4-3-6-7-6h-27z" transform="matrix(1.39417 0 0 1.31107 554 -463)"/></g><path fill="#0070de" fill-rule="evenodd" stroke="#3c3c3c" stroke-width=".4" d="M817 207h49v35h-49z"/><path fill="#ecede5" d="M825 232l1 1h7l-2 1c-2 1-3 1-1 1h3l3-1 2-1h-4l-3 2v-1l4-1h-1l1-1c2-1 2-1 0-1h-1l-2 1h-1l3-1v-1l1-1h-2l-1-1h-1v-1h-2v-2c-1 0-1 0 0 0l-1-1v-1h1l1-1v-1h1l1-1h1l1-1c1 0 2 0 1-1-3-2-8 1-9 5 0 2 1 5 3 6l3 1v1h-2a102 102 0 00-5 1zm1-17l1 1h4l1 1 2 1 2-1h-1c-1 0-1 0 0 0h2v-1c-1 0-1 0 0 0l1-1c-1 0 0 0 0 0h1v-1l1 1h2l-2-2v-1l1 1 1 1v-1l1 1h1a10 10 0 00-4-3l-1-1h-1v1h-5 1l1 1 2 1h-3l-1-1h-3v1l1 1h2v1l-1-1h-4l-2 1zm3 9h1v1h-1l1 1c-1 0 0 0 0 0h1l1 1h1v1h2c0 1 0 0 0 0h2v-1c0 1 0 0 0 0h1s0-1 0 0l1-1 1-1v-1c1 0 1 0 0 0l-2 2-1 1h-2c-1 0 0 0 0 0l2-1h1v-1l-1-1c0 1 0 1 0 0v-1h1v-1h-1l-2-1h-1 1l2-1h-3c0 1 0 1 0 0l-1 1h-1v1h-1v1h-1l-1 1zm2 3zm1 10h4l3-2v-1a11 11 0 00-3 2h-1l-1 1 1-1 2-2h-1l-1 1-1 1h-1l-1 1zm2-7h3v1h1v-1h-2l2-1h-1l-1 1h-2zm1-12l1 1h1l1 1 2 1h6l2 1 1 1 1 1 1 2 1 3c-1 2-1 1-1-1v-2h-1v-1h-8v8c1 0 1 0 0 0v5h8l1-1v-4l-1-1v-1c1 0 1 0 0 0v1l1 1v-2 1l1 2v-1l1-1v-1 1l1 1h1v-1h-1v-2l1-2v-1l1 1v-1l-1-1 1-1h-1v-1c1 0 1 0 0 0v-1l-1-1v-1h-1l1-1v-1h1v-1c1 0 0 0 0 0-1 0-2 0-1-1v-1h-1l-2 1h1v1c-1 1-1 0-1-1h-1v-1h-1v2l-1-1-1-2-1 1v-1h-2s0 1 0 0h-2v1a6 6 0 00-2-1v2l-1-1h-2l1 2h-3zm1 14h2l1-1s1 0 0 0c0-1 0 0 0 0l-2 1h-1zm1-11l1 1v-1h-1zm0 18h1l1-1 1-1 1-1 1-1-1 1h-1l1-1-1 1-2 1-1 2zm1-11zm0 6l1-1h-1 1v-1h-1v2zm0-12h1-1zm1 2v-1 1zm0-3l1 1 1 1v1c1 0 1 0 0 0v1l-1 1-1 1h1v-1h1l1-1 1-1h1c0-1 0-1 0 0h1c0-1 1-1 0 0h1l1-1v-1h-4l-3-1h-1zm0 8l1-1h-1v1zm0 1l1-1c1 0 1 0 0 0l-1 1zm1-2h1v-1h-1v1zm0 4v2h2-1v-1h1l-1-1c1 0 0 0 0 0v-1l1-1h-1c-1-1-1 0-1 1v1zm1 6l1-1h-1v1zm0-9zm1-19v1l1 1 2 2h1v1h1l-1-1v-1l-1-1-1-1-2-1zm5 2v1l1 2c0-1 0-1 0 0h1v-2h-1v-1l-1-1v1zm1 12h1v-1h-1v1zm2-9l1 1v-3l-1 1v1zm4 6l1 1v-1h-1z"/><path fill="#efed9d" d="M825 232l1 1h7l-2 1c-2 1-3 1-1 1h3l3-1 2-1h-4l-3 2v-1l4-1h-1l1-1c2-1 2-1 0-1h-1l-2 1h-1l3-1v-1l1-1h-2l-1-1h-1v-1h-2v-2c-1 0-1 0 0 0l-1-1v-1h1l1-1v-1h1l1-1h1l1-1c1 0 2 0 1-1-3-2-8 1-9 5 0 2 1 5 3 6l3 1v1h-2a102 102 0 00-5 1zm1 0h1v1l-1-1zm0-17l1 1h4l1 1 2 1 2-1h-1c-1 0-1 0 0 0h2v-1c-1 0-1 0 0 0l1-1c-1 0 0 0 0 0h1v-1l1 1h2l-2-2v-1l1 1 1 1v-1l1 1h1a10 10 0 00-4-3l-1-1h-1v1h-5 1l1 1 2 1h-3l-1-1h-3v1l1 1h2v1l-1-1h-4l-2 1zm0 0h1s1 0 0 0h-1zm0 9l1-3 1-1 2-1v1l-1 1v1l-1 1v3l1 1 1 1c1 0 0 0 0 0l-2-2h-1l3 3h1c-3 0-5-3-5-5zm2 9l2-1h2v1h-4zm0-18l1-1h2l1 1h-4zm1 9h1v1h-1l1 1c-1 0 0 0 0 0h1l1 1h1v1h2c0 1 0 0 0 0h2v-1c0 1 0 0 0 0h1s0-1 0 0l1-1 1-1v-1c1 0 1 0 0 0l-2 2-1 1h-2c-1 0 0 0 0 0l2-1h1v-1l-1-1c0 1 0 1 0 0v-1h1v-1h-1l-2-1h-1 1l2-1h-3c0 1 0 1 0 0l-1 1h-1v1h-1v1h-1l-1 1zm1-11h2l1 1h-1l-2-1zm1 14zm0-8zm1 16h1-1zm0 2h4l3-2v-1a11 11 0 00-3 2h-1l-1 1 1-1 2-2h-1l-1 1-1 1h-1l-1 1zm1 0zm0-11v-1 1zm1-15h1l2 1v1a12 12 0 01-3-2zm0 25h1-1zm0-6h3v1h1v-1h-2l2-1h-1l-1 1h-2zm1-12l1 1h1l1 1 2 1h6l2 1 1 1 1 1 1 2 1 3c-1 2-1 1-1-1v-2h-1v-1h-8v8c1 0 1 0 0 0v5h8l1-1v-4l-1-1v-1c1 0 1 0 0 0v1l1 1v-2 1l1 2v-1l1-1v-1 1l1 1h1v-1h-1v-2l1-2v-1l1 1v-1l-1-1 1-1h-1v-1c1 0 1 0 0 0v-1l-1-1v-1h-1l1-1v-1h1v-1c1 0 0 0 0 0-1 0-2 0-1-1v-1h-1l-2 1h1v1c-1 1-1 0-1-1h-1v-1h-1v2l-1-1-1-2-1 1v-1h-2s0 1 0 0h-2v1a6 6 0 00-2-1v2l-1-1h-2l1 2h-3zm1 18zm0-4h2l1-1s1 0 0 0c0-1 0 0 0 0l-2 1h-1zm1-11l1 1v-1h-1zm0 18h1l1-1 1-1 1-1 1-1-1 1h-1l1-1-1 1-2 1-1 2zm0-27zm0 26zm1-10zm0 6l1-1h-1 1v-1h-1v2zm0-12h1-1zm0 15h1-1zm1-26c1 1 1 1 0 0zm0 13v-1 1zm0-3l1 1 1 1v1c1 0 1 0 0 0v1l-1 1-1 1h1v-1h1l1-1 1-1h1c0-1 0-1 0 0h1c0-1 1-1 0 0h1l1-1v-1h-4l-3-1h-1zm0 8l1-1h-1v1zm0 1l1-1c1 0 1 0 0 0l-1 1zm1-2h1v-1h-1v1zm0 4v2h2-1v-1h1l-1-1c1 0 0 0 0 0v-1l1-1h-1c-1-1-1 0-1 1v1zm1 6l1-1h-1v1zm0-9zm1-19v1l1 1 2 2h1v1h1l-1-1v-1l-1-1-1-1-2-1zm0 24v-1 1zm0 1s1 0 0 0l1 1v-3s-1 0 0 0c-1-1-1-1 3-1a64 64 0 014 0v2h-1l1 1h-1v1c1-1 1 0 1 1h-8v-2zm0-7v-3h7l1 3h-1v2c-1 0 0 0 0 0h1v-1 2h-7v-1l-1-1v-1zm0 1zm0-2h1v-1l-1 1zm0 1h1v-1l-1 1zm1-17l1 1h-1v-1zm0 27h2a56 56 0 01-2 0zm1-3v1h1v-1h-1zm0-1l1 1v-2l-1 1zm0-6l1 1v-1h-1zm0-2l1 1v-1h-1zm0 1l1 1v-1h-1zm1 3c1 0 0 0 0 0zm0-10h1l1 1-2-1zm1 15l1 1c-1 0 0 0 0 0l1-1h-2zm0-1h1s-1 0 0 0c0 1 0 1 0 0v-1l-1 1zm0-6h1c1 0 1 0 0 0h-1zm0-1h1c0 1 0 0 0 0 1 0 0 0 0 0h-1zm1 2c0 1 0 1 0 0 0 0 1 0 0 0zm0-17v1l1 2c0-1 0-1 0 0h1v-2h-1v-1l-1-1v1zm1 12h1v-1h-1v1zm1 4l1-1h-1v1zm0-2c0 1 0 1 0 0 1 0 1 0 0 0zm0-4zm1-7l1 1v-3l-1 1v1zm0 21c0-1 0-3 1-2v3h-1v-1zm0-9v-1l1 2-1 1v-2zm0-4h1-1zm3 9zm1-11l1 1v-1h-1z"/><path fill="#e9e35d" d="M825 232l1 1h7l-2 1c-2 1-3 1-1 1h3l3-1 2-1h-4l-3 2v-1l4-1h-1l1-1c2-1 2-1 0-1h-1l-2 1h-1l3-1v-1l1-1h-2l-1-1h-1v-1h-2v-2c-1 0-1 0 0 0l-1-1v-1h1l1-1v-1h1l1-1h1l1-1c1 0 2 0 1-1-3-2-8 1-9 5 0 2 1 5 3 6l3 1v1h-2a102 102 0 00-5 1zm0 0h6l2 1h-7l-1-1zm1-17l1 1h4l1 1 2 1 2-1h-1c-1 0-1 0 0 0h2v-1c-1 0-1 0 0 0l1-1c-1 0 0 0 0 0h1v-1l1 1h2l-2-2v-1l1 1 1 1v-1l1 1h1a10 10 0 00-4-3l-1-1h-1v1h-5 1l1 1 2 1h-3l-1-1h-3v1l1 1h2v1l-1-1h-4l-2 1zm0 0h1-1zm0 9c0-3 2-6 6-6h2v1h-2l-1 1h-1l-1 1v2h-1v2l1 1v1h1l1 1 1 1c-1 0-1 0 0 0 1 1 0 1-1 1-3-1-5-3-5-6zm2-9l1-1h2l1 1h2v1l-6-1zm1 9h1v1h-1l1 1c-1 0 0 0 0 0h1l1 1h1v1h2c0 1 0 0 0 0h2v-1c0 1 0 0 0 0h1s0-1 0 0l1-1 1-1v-1c1 0 1 0 0 0l-2 2-1 1h-2c-1 0 0 0 0 0l2-1h1v-1l-1-1c0 1 0 1 0 0v-1h1v-1h-1l-2-1h-1 1l2-1h-3c0 1 0 1 0 0l-1 1h-1v1h-1v1h-1l-1 1zm0-8h1c1 0 1 0 0 0h-1zm0 19zm1-22v-1l2 1 1 1 2 1-4-2h-1zm1 14zm0-11zm0 19l3-1v1h-3zm1-10v-1 1zm0 1l2-1v1h-2zm0 11h4l3-2v-1a11 11 0 00-3 2h-1l-1 1 1-1 2-2h-1l-1 1-1 1h-1l-1 1zm1 0a56 56 0 002-2v1l-1 1h-1zm0-14zm0-12h2l1 1h1v1l-2-1-1-1h-1zm1 19h3v1h1v-1h-2l2-1h-1l-1 1h-2zm1 7l2-1h1a10 10 0 01-3 1zm0-24zm0 17h1-1zm0-12l1 1h1l1 1 2 1h6l2 1 1 1 1 1 1 2 1 3c-1 2-1 1-1-1v-2h-1v-1h-8v8c1 0 1 0 0 0v5h8l1-1v-4l-1-1v-1c1 0 1 0 0 0v1l1 1v-2 1l1 2v-1l1-1v-1 1l1 1h1v-1h-1v-2l1-2v-1l1 1v-1l-1-1 1-1h-1v-1c1 0 1 0 0 0v-1l-1-1v-1h-1l1-1v-1h1v-1c1 0 0 0 0 0-1 0-2 0-1-1v-1h-1l-2 1h1v1c-1 1-1 0-1-1h-1v-1h-1v2l-1-1-1-2-1 1v-1h-2s0 1 0 0h-2v1a6 6 0 00-2-1v2l-1-1h-2l1 2h-3zm0 6zm0-6zm1 4zm0 3zm0 7h2l1-1s1 0 0 0c0-1 0 0 0 0l-2 1h-1zm0-13zm1 2l1 1v-1h-1zm0-9h1-1zm0 27h1l1-1 1-1 1-1 1-1-1 1h-1l1-1-1 1-2 1-1 2zm0-1l2-2v1l-1 1h-1zm0-6zm0-16l1 1s0 1 0 0l-1-1zm0 7h1v1l-1-1zm1 5zm0-3zm0 9l1-1h-1 1v-1h-1v2zm0-12h1-1zm0-12l1 1 1 1c1 0 1 0 0 0l-2-2zm1 10zm0 4v-1 1zm0 14v-1h1l-1 1zm0-17l1 1 1 1v1c1 0 1 0 0 0v1l-1 1-1 1h1v-1h1l1-1 1-1h1c0-1 0-1 0 0h1c0-1 1-1 0 0h1l1-1v-1h-4l-3-1h-1zm0-2zm0 10l1-1h-1v1zm0 1l1-1c1 0 1 0 0 0l-1 1zm1-2h1v-1h-1v1zm0 4v2h2-1v-1h1l-1-1c1 0 0 0 0 0v-1l1-1h-1c-1-1-1 0-1 1v1zm0-16zm0 16h1-1zm0-2h1v1l-1-1zm1-19v1-1zm0 27l1-1h-1v1zm0 0v-1 1zm0-9zm1-19v1l1 1 2 2h1v1h1l-1-1v-1l-1-1-1-1-2-1zm0 24v-1 1zm0 1s1 0 0 0l1 1v-3s-1 0 0 0c-1-1-1-1 3-1a64 64 0 014 0v2h-1l1 1h-1v1c1-1 1 0 1 1h-8v-2zm0-7v-3h7l1 3h-1v2c-1 0 0 0 0 0h1v-1 2h-7v-1l-1-1v-1zm0-17h1l1 1h-1v-1h-1zm0 18zm0-14zm0 12h1v-1l-1 1zm0 1h1v-1l-1 1zm1 10h2a56 56 0 01-2 0zm0-21zm1-1zm0 3h1l-1 1v-1zm0 16v1h1v-1h-1zm0-1l1 1v-2l-1 1zm0-6l1 1v-1h-1zm0-13h1v1l-1-1zm0 11l1 1v-1h-1zm0 1l1 1v-1h-1zm1 3c1 0 0 0 0 0zm0-10h1l1 1 1 1-2-1-1-1zm1-1h2v1c1 0 0 0 0 0l-1-1h-1zm0 16l1 1c-1 0 0 0 0 0l1-1h-2zm0-1h1s-1 0 0 0c0 1 0 1 0 0v-1l-1 1zm0-6h1c1 0 1 0 0 0h-1zm0-1h1c0 1 0 0 0 0 1 0 0 0 0 0h-1zm1 2c0 1 0 1 0 0 0 0 1 0 0 0zm0-13v-1 1zm0-4v1l1 2c0-1 0-1 0 0h1v-2h-1v-1l-1-1v1zm0 1v-1h1v1h-1zm1 4zm0 7h1v-1h-1v1zm0-11c1 0 1 0 0 0zm0 5h1v1l-1-1zm1 10l1-1h-1v1zm0-2c0 1 0 1 0 0 1 0 1 0 0 0zm0-10zm0 6h1l1 2 1 1c0 1 0 1 0 0h-1l-1-1v-1l-1-1zm1-3zm0 1zm0-5l1 1v-3l-1 1v1zm0 21c0-1 0-3 1-2v3h-1v-1zm0-9v-1l1 2-1 1v-2zm1-6zm0-7zm1 18zm0-1v-1 1zm0-5zm1 6h1v1l-1-1zm1-4zm0-7l1 1v-1h-1zm1-3z"/><path fill="#a2a8a7" d="M825 232l1 1-1-1h3c-1 0-1 0 0 0a60 60 0 015 0l-1 1h-2 3l-2 1c-2 1-3 1-1 1h1l1-1-1 1v-1l4-1h-1l1-1c2-1 2-1 0-1h-1l-2 1h-1l3-1v-1l1-1h-2l-1-1h-1v-1h-1 1v1l1 1h2l-1 1h-3 2v1h-2a102 102 0 00-5 1zm7 2h3v1h-3 1l3-1 2-1h-4l-2 1zm-6-19l2-1-2 1zm0 0l1 1h3a42 42 0 00-4-1zm0 9c0 2 1 4 3 5h1c-4-1-5-6-3-9l-1 3v1zm2-10h4l1 1h1l1 1h-2l1 1h-3 1l2 1 2-1h-1c-1 0-1 0 0 0h2v-1c-1 0-1 0 0 0l1-1c-1 0 0 0 0 0h1v-1l1 1h2l-2-2v-1l1 1 1 1v-1l1 1h1l-2-2-2-1h1l1 1-2-1-1-1h-1l2 1 1 1h-1l-1-1h-3 1l2 1h-2v1h-3l-1-1h-3v1l1 1h2v1l-1-1h-4zm0 10v1h1l-1-1v-1 1zm0 1h1-1zm0-10l4 1-2-1h-2zm1 8l1-1v-1h1l1-1h1l1-1c1 0 2 0 1-1-2-1-4 0-6 1l1-1h4v1h-1l-2 1-1 1-1 1v1zm0 1zm0 2v1-1zm0 0zm0 9l2-1a6 6 0 002-1l-2 1v1h-2zm0-10h1v1-1h-1l1 1c-1 0 0 0 0 0h1l1 1h1v1h2c0 1 0 0 0 0h2v-1c0 1 0 0 0 0h1s0-1 0 0l1-1 1-1v-1c1 0 1 0 0 0l-2 2-1 1h-2c-1 0 0 0 0 0l2-1h1v-1l-1-1c0 1 0 1 0 0h-2c-1 0-1 0 0 0h2v-1h1v-1h-1l-2-1h-1 1l2-1h-3c0 1 0 1 0 0l-1 1h-1v1h-1v1h-1v1h-1 1v1h-1zm0-13h4v1c1 0 0 0 0 0-1 0-1 0 0 0l2 1h-3l-1-1h-1l-1-1zm1 11l1 1-1-1zm1 4zm1-2v-2h1v1c1 0 0 0 0 0l-1 1zm0 1l2-1-1 1v1l-1-1zm0-4l2 1c1 0 1 0 0 0l-2-1zm0 15h1l1-1 2-1-1 1-1 1 1-1h2c1 0 1 0 0 0v1l2-2v-1a11 11 0 00-3 2h-1l-1 1 1-1 2-2h-1l-1 1-1 1h-1l-1 1zm1-26h1l1 1 1 1-1-1-1-1h-1 3-3zm1 26zm0-7h3v1h1v-1h-2l2-1h-1l-1 1h-2zm1 0zm0-12l1 1-1-1h2-2zm0 4v-1l1 1v1l-1-1zm0 4h1v-1c-1 0 0-1 0 0v1h-1zm1 6h1-1 1-1zm1-11l1 1v-1h-1zm0 11h1l1-1s1 0 0 0c0-1 0 0 0 0l-2 1zm0 7h1-1l3-3-1 1h1v1h-2 1l1-1 1-1 1-1-1 1h-1l1-1-1 1-2 1-1 2zm0-23l1 2h-1v1c1 0 1 0 0 0l1 1h1v-1h1v2h6l2 1 1 1 1 1 1 2 1 3c-1 2-1 1-1-1v-2h-1v-1h-8v8c1 0 1 0 0 0v5h8l1-1v-4l-1-1v-1c1 0 1 0 0 0h1v1h-1l1 1v-2a11 11 0 011 1l-1-2 1-1v-3l-1-1-1-2-1-1a94 94 0 00-1-2h-3c-1 0-1 0 0 0h2l1 1h-2l-1-1h-1v-1h4v1h1v-1l-1-1v-1l1 1 1 1v2h1l1 1v2h-1 1v2l1 2-1 1v4l1-1v-1l1 1 1 1v-1h-1v-2l1-2v-1l1 1v-1l-1-1 1-1h-1v-1c1 0 1 0 0 0v-1l-1-1v-1h-1l1-1v-1h1v-1c1 0 0 0 0 0-1 0-2 0-1-1v-1h-1l-2 1h1v1c-1 1-1 0-1-1h-2 1v-1h-1 1-1v2l-1-1-1-2v1s-1 0 0 0h-1v-1h-2 2v1h-1c0-1 0-1 0 0h-1v-1h-1l-1-1 1 1v1l-1-1v-1 2a6 6 0 00-2-1v2l-1-1h-2zm0 15zm0-15l1 1v1l-1-2zm0 7l1 1h-1v-1zm0 2h1s0 1 0 0h-1zm1 3zm0 6l1-1h-1 1v-1h-1v1h1l-1 1v-1 1zm0-24zm0 12h1-1zm1-6a48 48 0 001 1h-1v-1zm0 8v-1 1zm0-3l1 1 1 1v1c1 0 1 0 0 0v1l-1 1-1 1h1v-1h1l1-1 1-1h1c0-1 0-1 0 0h1c0-1 1-1 0 0h1l1-1v-1h-4l-3-1h-1zm0 8l1-1h-1v1zm0 1l1-1c1 0 1 0 0 0l-1 1zm0-15l1 1 1 1-1-1-1-1zm1 13h1v-1h-1v1zm0 4v2h2-1v-1l-1-1h1l1 1h-1 1l-1-1c1 0 0 0 0 0v-1l1-1h-1c-1-1-1 0-1 1v1zm0-1v-1h1l-1 1zm0-11h1c0 1 0 1 0 0h-1zm1 18l1-1h-1v1zm0 0v-1 1zm0-9zm1-12zm0 3v-1 1zm0-10v1l1 1 2 2h1v1h1l-1-1v-1l-1-1-1-1-2-1 1 1h1v2s1 0 0 0l-1-1-1-1v-1zm0 24v-1 1zm0 1s1 0 0 0l1 1v-3s-1 0 0 0c-1-1-1-1 3-1a64 64 0 014 0v2h-1l1 1h-1v1c1-1 1 0 1 1h-8v-2zm0-7v-3h7l1 3h-1v2c-1 0 0 0 0 0h1v-1 2h-7v-1l-1-1v-1zm0 1zm0-2h1v-1l-1 1zm0-3l1-1v1h-1zm0 4h1v-1l-1 1zm1-10v-1h1v1h-1c0 1 0 1 0 0zm0 20h2a56 56 0 01-2 0zm0-17l1-1v1h-1zm1 14v1h1v-1h-1zm0-1l1 1v-2l-1 1zm0-6l1 1v-1h-1zm0-2l1 1v-1h-1zm0 1l1 1v-1h-1zm1 3c1 0 0 0 0 0zm0-7zm0-6h1v1h-1v-1zm1 18l1 1c-1 0 0 0 0 0l1-1h-2zm0-1h1s-1 0 0 0c0 1 0 1 0 0v-1l-1 1zm0-6h1c1 0 1 0 0 0h-1zm0-1h1c0 1 0 0 0 0 1 0 0 0 0 0h-1zm1 2c0 1 0 1 0 0 0 0 1 0 0 0zm0-11v-1 1zm0-6v1l1 2c0-1 0-1 0 0h1v-2h-1v-1l-1-1 1 1 1 1h-1v1l-1-1v-2 1zm1 12h1v-1h-1v1zm1 4l1-1h-1v1zm0-2c0 1 0 1 0 0 1 0 1 0 0 0zm1-5l1 2v-1l-1-1zm0-6l1 1v-2 1h-1v-1 1zm0 21c0-1 0-3 1-2v3h-1v-1zm0-9v-1l1 2-1 1v-2zm1-13v-1 1zm0 16c0 1 0 1 0 0zm0-11h1v1l-1-1zm1 14zm0-9h1l-1 1v-1zm1 6zm0-7v1c1 0 1 0 0 0v-1zm0-6zm0 15l1 1-1-1zm0-2v-1l1-1v-3 5h-1zm1-9l1 1v-1h-1zm1-3c0 1 0 1 0 0zm0 9h1-1z"/><path fill="#ecdb18" d="M825 232zm0 0zm0 0zm1-17l2-1-2 1zm0 17zm0 0h2c-1 0-1 0 0 0a60 60 0 015 0l-1 1h-2 3l-2 1h1l1-1-1 1 3-1h-1l1-1c2-1 2-1 0-1h-1l-2 1h-1l3-1v-1l1-1h-2l-1-1h-1l1 1h2l-1 1c-3 0-5-1-6-3l2 2 3 1v1h-2a102 102 0 00-4 1zm0-9zm0 0l2-3-2 3zm1-8v1a11 11 0 012 0h-2v-1zm0 18zm1-19h4l1 1h1l1 1h-2l1 1h-3 1l2 1 2-1h-1c-1 0-1 0 0 0h2v-1c-1 0-1 0 0 0l1-1c-1 0 0 0 0 0h1v-1l1 1h2l-2-2v-1l1 1 1 1v-1l1 1h1l-2-2-2-1h-1 1l1 1c1 2-1 1-2-1h-3 1l2 1h-2v1h-3a8 8 0 01-1-1v1c1 0 0 0 0 0-1 0-1 0 0 0l2 1c1 1 0 1-1 1l-1-1v1l-1-1h-4zm0 10zm0 0v-1h1l1-1v-1h1l1-1h1l1-1c1 0 2 0 1-1-2-1-4 0-6 1l5-1v1h-1l-2 1-1 1-1 1v1h-1v1zm0 1zm0-10l4 1-2-1h-2zm0 9a3 3 0 001 0h-1zm0 1h1-1zm1-1zm0 2zm0 9zm0-10h1v1h1l1 1h1v1h2c0 1 0 0 0 0h2v-1c0 1 0 0 0 0h1s0-1 0 0l1-1 1-1v-1c1 0 1 0 0 0l-2 2-1 1h-2c-1 0 0 0 0 0l2-1h1v-1l-1-1c0 1 0 1 0 0h-2c-1 0-1 0 0 0h2v-1h1v-1h-1l-2-1h-1 1l2-1h-3c0 1 0 1 0 0l-1 1h-1v1h-1v1h-1v1h-1 1v1h-1zm0-12v-1h1l-1 1zm1-1zm-1 14h1-1zm1-1zm0-2l1 1-1-1zm0 4zm0 8h1l1-1-1 1v-1h1l-1 1h-1zm2-1h3v1h-3 1l3-1 2-1h-4l-2 1zm-2-18h1-1zm1 11zm1-2v-2h1v1c1 0 0 0 0 0l-1 1zm0 1l2-1-1 1v1l-1-1zm0-4l2 1c1 0 1 0 0 0l-2-1zm0 15zm0 0zm1 0zm0-1zm0-25h1v-1l-1 1zm1-1zm0 27l1-1h3l-1 1 2-2v-1a11 11 0 00-3 2h-1l-1 1 1-1-1 1zm0-1zm0-6h3v1h1v-1h-2l2-1h-1l-1 1h-2zm0-20l2 1-2-1zm1 20zm0-18zm0 23h1l-1 1 2-2h-1l-1 1zm0-17l1 1-1-1h2-2zm0 4v-1l1 1v1l-1-1zm0 4h1v-1c-1 0 0-1 0 0v1h-1zm1 6h1-1 1-1zm1-11l1 1v-1h-1zm0 11h1l1-1s1 0 0 0c0-1 0 0 0 0l-2 1zm0-16l1 1v1h-1v1c1 0 1 0 0 0l1 1h1v-1h1v2h6l2 1 1 1 1 1 1 2 1 3c-1 2-1 1-1 0v2h-1 1v1h-1l1 1v-2a11 11 0 011 1l-1-2 1-1v-3l-1-1-1-2-1-1a94 94 0 00-1-2h-3c-1 0-1 0 0 0h2l1 1h-2l-1-1h-1v-1h4l1 1v-1l-1-1v-1l1 1h1v3l2 1v2h-1 1v2l1 2-1 1v4l1-1v-1l1 1 1 1h-1 1v-1h-1v-2l1-2v-1l1 1-1-1h1l-1-1v-1h1-1v-1c1 0 1 0 0 0v-1l-1-1v-1h-1l1-1v-1h1v-1 1-1c-1 0-2 0-1-1v-1h-1l-2 1h1v1c-1 1-1 0-1-1h-2 1v-1h-1c0 1 0 1 0 0v2l-1-1-1-2v1s-1 0 0 0h-1v-1h-2 2v1h-1c0-1 0-1 0 0h-1v-1h-2 1l-1 1v-1 1a6 6 0 00-2-1v1c-1-1 0-1 0 0l1 1-1-1v1l-1-1h-2zm14 1zm-14 14zm0 7l1-1h2v1a3 3 0 01-1 0l1-1 1-1 1-1-1 1h-1l1-1-1 1-2 1-1 1zm0-15l1 1h-1v-1zm0 2h1s0 1 0 0h-1zm1 3zm0 6l1-1h-1 1v-1h-1v1h1l-1 1v-1 1zm0-24zm0 12h1-1zm1-6a48 48 0 001 1h-1v-1zm0 8v-1 1zm0-3l1 1 1 1v1c1 0 1 0 0 0v1l-1 1-1 1h1v-1h1l1-1 1-1h1c0-1 0-1 0 0h1c0-1 1-1 0 0h1l1-1v-1h-4l-3-1h-1zm0 8l1-1h-1v1zm0 1l1-1c1 0 1 0 0 0l-1 1zm1-2h1v-1h-1v1zm0 4v2h2-1v-1l-1-1h1l1 1h-1 1l-1-1c1 0 0 0 0 0v-1l1-1h-1c-1-1-1 0-1 1v1zm0-1v-1h1l-1 1zm0-11h1c0 1 0 1 0 0h-1zm1 18zm0-27l1 1-1-1zm0 18zm0 8v1l1-1h-1zm1-20zm0 17zm0 2zm0 1zm0-3zm0-14v-1 1zm0 15zm0-25zm0 0zm0 17zm0-17v1l1 1 2 2h1v1h1l-1-1v-1l-1-1-1-1v2s1 0 0 0l-1-1-1-1a2 2 0 010-1zm0 18zm0 2zm0 1zm0 2zm0-8zm0 13zm0-4zm0 4zm0-7zm0 1h1-1zm0-8l1-1v1h-1zm0-14l1 1h1l-2-1zm1 15zm0-7v-1h1v1h-1c0 1 0 1 0 0zm0 7zm0-4l1-1v1h-1zm2 2zm0 1zm0-7h1v1h-1v-1zm2 1v-1 1zm0-6zm0-1zm0 2l1 2c0-1 0-1 0 0h1v-2h-2zm1 11h1v-1h-1v1zm0-12a5 5 0 001 1h-1v-1zm0 13zm1-9h1-1zm1 5l1 2v-1l-1-1zm0-6l1 1v-2 1h-1v-1 1zm0 17zm0 0zm0-7zm0 1zm0-12zm0 24zm1-25zm0 14zm0 0zm0-8h1v1l-1-1zm1 14zm0-9h1l-1 1v-1zm0 10zm0 0zm1-4zm0-7v1c1 0 1 0 0 0v-1zm0-6zm0 15l1 1-1-1zm0-2v-1l1-1v-3 5h-1zm1-14zm0 5l1 1v-1h-1zm1-3zm1 8v-1 1z"/><path fill="#d1aa10" d="M825 232a3 3 0 011 0h-1zm1-17l1 1a11 11 0 012 0h-2v-2l-1 1zm0 8zm0 0c1-4 6-6 8-5l1 1h-1l-2 1-1 1h-1v1h-1v1l1-1v-1h1l1-1h1l1-1c1 0 2 0 1-1-3-1-8 1-9 5zm1 4l2 2 3 1v1h-2a102 102 0 000 1h-2a44 44 0 006-1c2 0 1 1-1 2h-1a7 7 0 01-4 0h5l-2 1h-1 1l2-1s1 0 0 0l-2 1v1l2-1 2-1h1v1h-1l-4 1h-2 4l3-1 2-1h-4l-3 2v-1l4-1h-1l1-1c2-1 2-1 0-1h-1l-2 1h-1l3-1v-1l1-1h-2l-1-1h-1 1l1 1h2l-2 1c-3 0-5-1-6-3zm1-13zm0 10zm0 0v-1 1zm0 1zm0-10l4 1-2-1h-2zm0 9a3 3 0 001 0h-1zm0 1h1-1zm1-1zm0 2zm0-1h1v1h1l1 1h1v1h2c0 1 0 0 0 0h2v-1c0 1 0 0 0 0h1s0-1 0 0l1-1 1-1v-1c1 0 1 0 0 0l-2 2-1 1h-2c-1 0 0 0 0 0l2-1h1v-1l-1-1c0 1 0 1 0 0v1l1-1v1l-1 1-2 1-1 1c1 0 1 0 0 0l-1-1-1-1-1-1v-1l-1-1h1c-1-1 0-1 0 0h1v-1l1-1h1v2l1 1 1-1 1 1v-1l-1-1h-1v-1l2 1 1 1v-1h-1l-2-1h-1 1l2-1h-3c0 1 0 1 0 0l-1 1h-1v1h-1v1h-1v1h-1 1v1h-1zm0-13h4-4zm0 14h1v-1 1h-1zm1 1zm0-11zm1 11zm0-13a46 46 0 015 2h-3l1 1h1v1l-4-1v-1l1 1 2 1 2-1h-1c-1 0-1 0 0 0h2v-1c-1 0-1 0 0 0l1-1c-1 0 0 0 0 0h1v-1l1 1h2l-2-2v-1l1 1 1 1v-1l1 1h1l-2-2 1 1h-1l-1-1v1l-1-1-1-1h-2a4 4 0 00-1 0l2 1 2 1c2 2 2 2 0 0l-3-1 1 1 1 1-2-1h-3l-1-1 1 1h2l1 1h1l1 1h-1a28 28 0 00-4-2h-1l4 3-1-1-3-1v1l-1-1a5 5 0 00-1 0zm0 17h2c0-1 0 0 0 0h-2zm1-17zm0 23zm0 0zm1 0zm0-12l1-1-1-1v1c1 0 1 0 0 0v1zm0 11zm0-10h3v-2c-1 0-2 0-1 1l-1 1h-1zm0-16h1a6 6 0 01-1 0zm1 1zm0 26l2-1 2-1c2 0 1 0-1 1v1l2-2v-1a11 11 0 00-3 2h-1l-1 1 1-1 2-2h-1l-1 1a3 3 0 00-1 1l3-1-2 1-1 1zm0-7h3v1h1v-1h-2l2-1h-1l-1 1h-2zm1 0zm0-18zm0 6l1 1v-1c-1 0-1 0 0 0h2v1h-1 3l1-1h1v-1 1h1v-1h1v-1h-1v1h-1l-1-1v1l-1 1-1-1s-1 0 0 0l-1 1v-1 1h-3zm0-7zm1 16zm0 5h1-1zm1-5l1-1-1 1zm0-6l1 1v-1h-1zm0 11h1c0-1 0-1 0 0h-1 1l1-1s1 0 0 0c0-1 0 0 0 0l-2 1zm0 7v-1 1zm0 0zm0-8l1-1v1h-1zm0-15h1l2 1v-2l1 1h1c0 1 0 0 0 0v-1 1a6 6 0 00-2-1v2l-1-1h-2zm0 22l3-3v1l-1 1a27 27 0 002-1l-1 1-1 1 1-1 1-1 1-1-1 1h-1l1-1-1 1-2 1-1 1zm0-15l1 1-1-1zm0-4l1 1 2 1h6l2 1 1 1 1 1 1 2 1 3-1 1 1-1-1-3v-1l-1-2h-1l-1-1-2-1h-1c-1 1-5 1-6-1l-2-1zm1 9zm0 6l1-1h-1 1l-1 1v-1 1zm0-24zm0 23h1v-1h-1v1zm0 5zm0-16h1-1zm0-12zm0 0zm0 22h1-1zm1 6zm0-14v-1 1zm0-3l1 1 1 1v1c1 0 1 0 0 0v1l-1 1-1 1h1v-1h1l1-1 1-1h1c0-1 0-1 0 0h1c0-1 1-1 0 0h1l1-1v-1h-4l-3-1h-1zm0 3zm0 5l1-1h-1v1zm0-1zm0-17zm0 19l1-1c1 0 1 0 0 0l-1 1zm0 0l1-1-1 1zm1-2h1v-1h-1v1zm0 4v2h2-1v-1h1l-1-1c1 0 0 0 0 0v-1l1-1h-1c-1-1-1 0-1 1v1zm0 0v-1l1-1v1c1 0 1 0 0 0v1l1 1h-2 1v1h-1v-2zm0-8c1 0 0 0 0 0zm0-4h2v-1h1-2l-1 1zm0 8zm0-2h1-1zm0-4h2l-1 1-1-1zm1 16zm0-13v-1h1c-1-1 0-1 1-1v1h-1l-1 1zm0-14l1 1-1-1zm0 18zm0 8h1v1h-1l1-1h-1zm1-3zm0 2zm0 1zm0-3zm0 1zm0-25l1 1h1l-2-1zm0 17zm0 1zm0 2zm0 1zm0 2zm0-8zm0-14l1 1 2 2h1v1h1l-1-1v-1l-1-1-1-1 1 1 1 1v1l-1-1c0-1-1-1 0 0v1l-2-3h-1zm0 27zm0-23h1-1zm0 19zm0 4zm0-7zm0-8l1-1 1 1h-2zm0 9h1-1zm1-7zm0 0zm1-1zm0-9zm0 4h3l-1-1h-1l-1 1zm0-4h2v1h2v1l1 1 1 1v2l1 1h1l-1-1v-1l-1-2h-1v-1 1l-1-1-1-2-1 1v-1h-2zm1 1v1h1l1 1c0-1 0-1 0 0h1v-1h-1l-1-1h-1zm1 8l1-1v1h-1zm0-1v-1h1v1h-1zm1-11zm0-1zm0 2l1 2c0-1 0-1 0 0h1l-1-1c0-1 0-1 0 0l-1-1zm0 6h1l1 1v-1h-2zm1 5h1v-1h-1v1zm0-12a4 4 0 001 1h-1v-1zm0 13zm1-12v1a38 38 0 000-1zm0 3h1v1-1h-1zm1-1l1 1v-2 1h-1v-1 1zm0 17zm0-7zm0 0zm0 7zm0-1zm0-6zm0-11zm0 24zm0-6l1 1v-2 2l1-1-1-1v1h-1zm0-1zm1-18zm0 4v1h1v1h-1 1v2l1 1v-2 1l1 1 1 1v3l1 1-1-1v-1h1-1v-1c1 0 1 0 0 0v-1l-1-1v-1h-1l1-1v-1h1v-1 1h-2l2-1c-1 0-2 0-1-1h-1c0 1-1 1 0 0h-1v-1h1l-2 1h1v1c-1 1-1 0-1-1zm0 12zm0-2zm1 6zm0 0l1-1v-1 1c0-2-1-1-1 0v1zm0 1zm0-8h1v-2 1c-1 0-1 0 0 0v1h-1zm1-7zm0 11zm0-2zm1 2v2c1 0 0 0 0 0l1 1h-1 1v-1h-1v-2l1-2v-1l1 1-1-1-1 2v1zm0-9l1 1v-1h-1zm1-3zm0 0zm1 8v-1 1z"/><path fill="#ac9517" d="M857 228l-2-2s0-1 0 0l1-1v2l1 1zm-1-3l-1-1c1 0 1 0 0 0v-1l-1-1v-1h-1l1-1c0 1 0 1 0 0 1 0 0 0 0 0v-1h1v2l1 1v3zm-1-4h-1l1 1v-1zm1 7l-1 1v4h-1c-1 0-2 0-1 1h-1l-1 2v3l-1-1 1-1v-4l-1-1v-1c1 0 1 0 0 0v1l1 1v-2 1l1 2v-1l1-1v-1 1l1 1h1v-1h-1v-2l1-2v-1l1 1zm-1-10c-2 0-2 0-1-1h1l1 1h-1zm-1-2l-3 1h1v1c-1 1-1 0-1-1h-1v-1h-1v2l-1-1-1-2-1 1v-1h-2s0 1 0 0h-2v1a6 6 0 00-2-1v2l-1-1h-2l1 2h-3l1 1h1l1 1 2 1h6l2 1 1 1 1 1 1 2 1 3c-1 2-1 1-1-1v-2h-1v-1h-8v8c1 0 1 0 0 0v5h7l-3 1-4-1h-1 1v-1h-1l-1 1-3 1 1-2h-6 1l1-2-1 1h-3l-1-1 2-1h-3l-1-1h-1l-1-1h1a50 50 0 003-1l2-1-4-3-1-4c0 2 1 5 3 6l3 1v1h-2a104 104 0 00-5 1l1 1h7l-2 1c-2 1-3 1-1 1h3l3-1 2-1h-4l-3 2v-1l4-1h-1l1-1c2-1 2-1 0-1h-1l-2 1h-1l3-1v-1l1-1h-2l-1-1h-1v-1h-2v-2c-1 0-1 0 0 0l-1-1v-1h1l1-1v-1h1l1-1h1l1-1c1 0 2 0 1-1-2-1-6 0-8 3-1 1-1 1 0 0 1-2 3-4 5-4l-5-1c-1 0-1 0 0 0h4l1 1 2 1 2-1h-1c-1 0-1 0 0 0h2v-1c-1 0-1 0 0 0l1-1c-1 0 0 0 0 0h1v-1l1 1h2l-2-2v-1l1 1 1 1v-1l1 1h1l-4-3-1-1h-1v1h-5 1l1 1 2 1h-3l-1-1h2l-2-1h5c-1-1 0-1 1-1l2 1h1c-1-1-1-1 1-1l2 1v1h2v-1l2 2-1-1-1-1v2l1 2h1v-2 1h1v1l1 1v-3 2l1 1h2c1 0 0 0 0 0zm-5 7h-1v1h1v-1zm-2-1h-4l-3-1h-1l1 1 1 1v1c1 0 1 0 0 0v1l-1 1-1 1h1v-1h1l1-1 1-1h1c0-1 0-1 0 0h1c0-1 1-1 0 0h1l1-1v-1zm-1 1zm-1 0v-1 1zm-3 0h-1 1zm4-9v-1l-1-1-1-1-2-1v1l1 1 2 2h1v1h1l-1-1zm-5 18c1 0 0 0 0 0v-1l1-1a357 357 0 01-2 1v3h2-1v-1h1l-1-1zm1 3l-1 1h-1l1-1-1 1-2 1v2l1-1 1-1 1-1 1-1zm-1-8h-1v1h1v-1zm0 2zm-1-5l-2 2-1 1h-2c-1 0 0 0 0 0l2-1h1v-1l-1-1c0 1 0 1 0 0v-1h1v-1h-1l-2-1h-1 1l2-1h-3c0 1 0 1 0 0l-1 1h-1v1h-1v1h-1l-1 1h1v1h-1l1 1c-1 0 0 0 0 0h1l1 1h1v1h2c0 1 0 0 0 0h2v-1c0 1 0 0 0 0h1s0-1 0 0l1-1 1-1v-1c1 0 1 0 0 0zm-4-1h-1l-1-1 1 1h1zm-1 3h-1l1-1v-1 2zm5 3l-1 1 1-1c1 0 1 0 0 0zm-1 5a11 11 0 00-3 2h-1l-1 1 1-1 2-2h-1l-1 1-1 1h-1v1h3l3-2v-1zm0-6v1l1-1h-1zm0 3c0-1 0 0 0 0l-2 1h-1 2l1-1s1 0 0 0zm0 2h-1 1v-1h-1v2l1-1zm0-10zm0-1h-1 1zm-1 8h-2l2-1h-1l-1 1h-1c-1 0-1 0 0 0h2v1h1v-1zm0-2c-1 0 0 0 0 0zm-1-7l1 1v-1h-1zm-6 6c-1 0 0 0 0 0zm22-1c-1 0 0 0 0 0zm0-7l-1 1h1l-1 1v-3h1v1zm0 3v-1 1zm-2-1zm0-7l-1-1h1v1zm-1 6v-1l-1-1h1v1h1l-1 1zm0 1c0-1 0-1 0 0zm-2-2c-1 0 0 0 0 0zm-1-1l-1-1c0 1 0 0 0 0h1l1 1h-1zm0 1h-1 1zm-1-2l-1-1h1v1zm-1 2v-1 1zm-1-2h-1v-1l1 1zm-2 0h-1 1zm0 3l-1-1h1v1zm-1-2zm-1 1v-1h-1c0 1 0 0 0 0h1v1zm-1 0h-1 1zm-1-5c-1 0-1 0 0 0 0 0 1 0 0 0zm-4 1zm0 1h-1 1c0 1 0 1 0 0zm-1-1l-1-1h-4l-2 1c0 1 0 1 0 0l1-1h3v-1l1 1h2v1zm0-3h-2c-2 0-2 0-1 1l-1-1h4zm-2 4l-2-1h1l1 1zm-2 16c-1 0-1 0 0 0z"/><path fill="#96700e" d="M857 228l-1-1v-2 2l1 1zm-1-3l-1-1h1l-1-1v-1h-1 1v-1s-1 0 0 0l-1-1v-1l1-1v3l1 1v3zm0 3l-1 1v4h-1c-1 0-2 0-1 1h-1l-1 2v3l-1-1 1-1v-2c0-2 0-3 1-2l1-1s0-1 0 0l1 1h1v-1l-1-2 1-2v-1 1h1zm-1-10h-1v-1h1l1 1h-1zm-1-2h-2v2l-1-1h-1v-1h-2c0 1 0 0 0 0l-1-1h-2l1-1v1h1v-1h-1l-1-2-1-1-2-1v1l1 1h-1l-2-1-1-1c-1 0-2 0-1 1h-2l-2-1-1 1h1l1 1 1 1-2-1c-1 0-2 0 0 0h1l-2-1h5c-1-1 0-1 1-1l2 1h1c-1-1-1-1 1-1l2 1v1h2l1-1 1 2-1-1-1-1v2l1 2c1 1 2 1 1-1h1v2h1v-3 2l1 1h2s1 0 0 0zm0 5zm-1-2h-1 1zm-2 9v-2 2zm0 4v-1 1zm-1-18v-1h1l-1 1zm0 11l-6-1h-1 2c0-1 0-1 0 0h4v-1h-1l-2-1-1-1-4 1h1l3-1 1 1h2l1 1h1v2c0 1 0 1 0 0zm0 7v-1 1zm0-14c0 1 0 1 0 0zm-4 21l-4-1c-1 0-1 0 0 0v-1 1h7l-3 1zm-1-25h-1 1zm-1 1l-1-1h-1c0 1 0 1 0 0h2v1zm-2 17v1c1 0 1 0 0 0v-1h-1v-1l1-1h-1l1-1h-1l-1 1v4l1 1c1 0 1 0 0 0h-1l-2 2v2l2-2h1l-1 1-3 1 1-2h-6 1l1-2-1 1h-3l-1-1 2-1h-3l-1-1h-1l-1-1h1a50 50 0 003-1l2-1-4-3-1-4c0 3 2 7 6 7 1 0 1 0 0 0v1h-1l-5 1c-1 0-1 0 0 0v1h7l-1 1h-2c-2 1-2 1 0 1l1 1h1l1-1h3a132 132 0 00-3 1c-1 1-1 1 1 1h2l3-2c1-1 0-2-1-1h-1v-1l1-1 1-1v-1c0 1 0 1 0 0v-1h-3l-1 1v-1l1-1h2c1 0 0 0 0 0h-1s0-1 0 0l1-1h1v-1h1v-1l-1 2h2v-1h1v6zm-1-5l-2 1v1l1-1v1l-1 1 2-1v-2zm-2 6v-1c1-1 0-1 0 0l-1 1v1l1-1c1 0 1 0 0 0zm3-8c1 0 1 0 0 0zm0-9l-1-1h-1 2v1zm0 17h-1 1zm0 4v-1 1zm0-3zm-1-10c-1 0-1 0 0 0h-1v-1l-1-1c0-1 0-1 0 0h1l1 2zm-1 1c1 0 1 0 0 0zm0-7c-1 0-1 0 0 0 0 0 1 0 0 0zm0-5zm0 3h-2s-1 0 0 0h2s0 1 0 0zm-1 9l-1 1-1 1h-2 1l1-1h1v-1h1v-2 2h-1l-1-1c0 1 0 1 0 0v-1l1 1c1-1 0-2-1-2l-2-1h2l1 1c1 0 2 1 1 3zm0-10v-1 1zm0 6s-1 0 0 0l-1 1v-2l-1 1s-1 0 0 0l-1-1s-1 0 0 0v-1h1l2 2zm-1-7zm-1 4h-1v-1h1v1zm0 14c0 1 0 0 0 0zm0-1l-1 1v1h-1v-1l2-1h-2l1-1h1v1zm0-15h-1 1zm-1 3l-1 1h-2l-1 1h-1v1h-1v1h-1v-1h1c-1 0 0 0 0 0v-1h1l2-1 1-1c0 1 0 0 0 0h1s1 0 0 0h1zm-1 9zm0-2s-1 0 0 0v-2 2zm0-3c0 1 0 0 0 0l-1-1 1 1zm-1 8v-1 1zm1-13h-1 1zm-1 11h-1v-1l-1-1h1v1h1v1zm-1-11c-3 0-5 1-6 3l-1 1c1-2 4-5 6-5l-5-1c-1 0-1 0 0 0h4l1 1 1 1zm0-3l-1-1h-4l-2 1v1l1-2h3v-1l2 1h1v1zm-2-3c-2 0-2 0-1 1l-1-1h2zm-1 15zm0-1c-1 0 0 0 0 0zm-1-1v-1 1zm0 0h-1 1zm0-1h-1l1-1v1z"/><path fill="#5e643f" d="M857 228l-1-1v-2 2l1 1zm-1-3h-1l1-1v-1h-1v-2l-1-1v-1h1v2l1 1v3zm0 3l-1 1v4h-1c-1 0-2 0-1 1h-1l-1 2v3l-1-1 1-1v-4h1l1 1c-1-1 1-2 1-1h1v-1l-1-1 1-3h1zm-1-10h-1v-1h1l1 1h-1zm-1-2h-1c-2 1-2 1-2-1v-2 2l1 1h2s1 0 0 0zm-3 13v-3l1 1-1 2zm-1-15v-1h1l-1 1zm0 11l-6-1h-1 7v1zm0 7v-1 1zm0-15v-1 1zm0-2h-1v-2 1h1v1zm-4 24l-4-1c-1 0-1 0 0 0v-1 1h7l-3 1zm3-26h-1l-1-2v3c0 1 0 0 0 0a14 14 0 00-3-3l-2-1v1h-2l-1-1c-1 0-2 0-1 1h-2l-2-1v1l1 1 1 1c1 0 1 1 0 0l-2-1h-1 2l-2-1h5c-1-1 0-1 1-1l2 1h1c-1-1-1-1 1-1l2 1v1h2l1-1 1 2zm-5 2zm-2 17v-4c0-2 0-2 0 0v4zm0-7c1 0 1 0 0 0zm-1 12l-1 1-3 1 1-2h-6 1l1-2-1 1h-3l-1-1 2-1h-3l-1-1h-1l-1-1h1a50 50 0 003-1l2-1-4-3-1-4c0 3 2 7 5 7 1 0 2 0 1 1h-1l-5 1c-1 0-1 0 0 0v1h6l-1 1c-3 1-3 1-1 1l1 1 1-1h3l-2 1c-1 1-1 1 1 1h2l3-1-1 1-1 2a7 7 0 003-1l1-1zm-1-14zm-1 5c0 1-1 0 0 0zm-1 0v-1h1l-1 1zm0-4c0-1 0-1 0 0 1 1 1 1 0 0zm-3 2v-1 1zm0-3v-1 1zm-1-3zm0 9h-1v-1l1 1zm-1-9zm0-2c-3 0-5 1-6 3l-1 1c1-2 4-5 6-5l-5-1c-1 0-1 0 0 0h2a10 10 0 013 1l1 1zm-2-6c-2 0-2 0-1 1l-1-1h2zm0 2a203 203 0 01-3 0l-2 1v1l1-2h3v-1l2 1h-1zm0 7h-1 1zm-1 5c-1 0 0 0 0 0zm-1-2zm0-1v-1 1z"/><path fill="#001029" d="M112 111v396h396V111H112z"/><path fill="#b57300" d="M147 418c2-15-2-30 3-44v65h88v-13c7 3 8 3 15 1l10-1c6 5 1 13 4 18 5 3 12 6 17 2 4-4 8-10 10-16l8-2c5 0 10 4 15 6 6 6 14 10 22 13 10 3 22 0 32 3-13 9-29 1-42 11-13 1-25-5-38-2-17 4-33 1-50-1l-4-3c6-5 13-10 18-16l-27 4c-5 3-1 8 0 12-5 3-10 4-16 5-7-8-16-13-26-16 3 5 5 12 9 16 11 4 20 11 30 16-11 4-23-1-33-6-7-9-16-18-28-19l6 8c-5 7-14 7-22 10-3 2-2 7-3 10-10 2-19 1-28 2l-1 22c-3-22-1-46-1-69l27 6c-4-11-16-15-24-23 6-6 13-8 20-11 2 5 4 9 9 12z"/><path fill="#f7a500" d="M150 349l2-1 5 13c4 3 9 11 14 13h-21c-5 14-1 29-3 44-5-3-7-7-9-12-7 3-14 5-20 11 8 8 20 12 24 23l-27-6c-1-7-2-14-1-22 10-7 24-10 26-23l-12 6c5-7 9-14 12-22s3-18 10-24z"/><path fill="#100008" d="M225 373c7 2 17-5 19-7 0 6 2 12 4 18l-2 5-5-2-5-6c-2-2-11-6-11-8z"/><path fill="#fbfdc2" fill-rule="evenodd" stroke="#323315" stroke-width=".3" d="M73 206h53v39a237 237 0 01-29 0H74l-1-39z" transform="matrix(1.68083 0 0 1.70667 26 22)"/><path fill="none" stroke="#44451d" stroke-width=".3" d="M119 243s3-3 3-7l-1-12 3-17h-16l-8 1-7-1-16 1" transform="matrix(1.68083 0 0 1.70667 26 22)"/><path fill="none" stroke="#323315" stroke-width=".3" d="M74 207l3 1-1 36h-1l-1-37z" transform="matrix(1.68083 0 0 1.70667 26 22)"/><path fill="none" stroke="#323315" stroke-width=".3" d="M77 244h19l4 1 3-1h10l6-1 6 1-22 1h-5l-24-1h3zm23-36v37" transform="matrix(1.68083 0 0 1.70667 26 22)"/><path fill="#323315" d="M169 409l-4 7-3-7-2 8v1h-1a38 38 0 013 0h-1v-1l1-5 3 6 3-6 1 5v1h-1a36 36 0 013 0h-1v-1l-1-8zm-7-23v-4h1a2 2 0 012 2l-1 1-1 1h-1zm0 4h2-1l-1-1v-3h2l2-1v-3l-2-1a47 47 0 00-4 0l1 1v1a107 107 0 010 7h-1 2zm12 0h1v-1l-4-8-3 8-1 1h-1a37 37 0 013 0v-2h4l1 1v1h-1 1zm-1-2h-4l2-5 2 5zm11-5l1-1 1-1a30 30 0 01-3 0v2l-1 2-1-2v-2a35 35 0 01-4 0h1l1 1v1l2 3-2 3v1h-2a30 30 0 014 0h-1v-1l2-3 1 3v1a35 35 0 014 0h-2v-1l-3-4 2-2zm-20 21h2-1l-1-1a107 107 0 010-8h2l1 1h1v-1a357 357 0 01-8 1l1-1h2v1a107 107 0 010 8h-1 2zm7 0h2-1v-1a107 107 0 010-7l1-1a31 31 0 01-4 0h1v1a107 107 0 010 8h-1 2zm7-5v-3h1l1 1-1 2h-1zm0 1h2v3l-2 1v-4zm-1 4h4l1-2-1-2-2-1h1l1-2-1-1-1-1a36 36 0 00-4 0h1v1h1a107 107 0 01-1 8h-1 2zm9 0v-1a107 107 0 010-7l1-1a31 31 0 01-3 0l1 1a108 108 0 010 8h-1 2zm-7 14h1v-1l-4-8-3 8-1 1h-1a37 37 0 013 0h-1v-1l1-1h4v2h-1 2zm-1-3h-4l2-4 2 4zm7 3h-1v-4h1l2 3 3 1-2-1-2-3 1-1 1-1-1-2-2-1a47 47 0 00-3 0l1 1a107 107 0 01-1 8 36 36 0 013 0zm-1-8h1a2 2 0 012 2l-1 1-1 1-1-1v-3zm-20 14l2 1v1h1l-1-2h-2l-4 1-1 3 1 4 4 1h2l1-2-1 1h-2l-3-1-1-3 1-3 3-1zm7 4l1 1h1a27 27 0 010-2h-1v1h-2a80 80 0 010-4h3a354 354 0 01-5 0h1v1a107 107 0 01-1 7v1a36 36 0 015 0l1-2-1 1h-3v-4h1zm28-42h1v1a29 29 0 010-3v1h-2a84 84 0 010-3h3v-1a325 325 0 01-6 0h1v1a114 114 0 010 8h-1a34 34 0 016 0v-2l-1 2h-2v-4h1zm12-4l1-1a29 29 0 01-3 0l1 1-3 6-2-6v-1h1a35 35 0 01-4 0l1 1 4 8 4-8zm7 8h2-1l-1-1-3-8-4 8v1h-1a36 36 0 013 0h-1v-1l1-1h3l1 1v1h-1 2zm-2-3h-3l1-4 2 4zm13 3a299 299 0 011-8v-1a30 30 0 01-2 0v1l1 1a85 85 0 010 5l-7-7a297 297 0 01-1 9h-1a36 36 0 013 0h-1v-1a85 85 0 010-6l7 7zm-28 6h2l1 2v-2l-3-1-4 2-1 3 1 3 4 1h3v-4h1a21 21 0 01-3 0l1 1v3h-2l-3-1-1-3 1-3 3-1zm8 4h1v1a27 27 0 010-3v1h-2a75 75 0 010-3h3v-1a354 354 0 01-6 0h1v2a107 107 0 010 7h-1a37 37 0 016 0l1-2h-1v2h-3v-4h1zm5 4h4l1-2-1 2h-3v-1a112 112 0 010-7l1-1a31 31 0 01-4 0l1 1v1a107 107 0 010 7h-1 2zm7 0h2-1v-1a107 107 0 010-7l1-1a31 31 0 01-4 0h1v2a107 107 0 010 7h-1 2zm-21 10l1 2v1l-2 1h-1l-1-2h-1l1 2h5l1-2-2-3-2-1-1-1 1-1 1-1 1 1 1 1h1l-1-2h-4l-1 2 1 2 2 1zm9 4h2-1l-1-1a120 120 0 010-7h3l1 1v-2a383 383 0 01-8 2v-1h3a120 120 0 010 8h-1 2zm12 0h1v-1l-4-8-3 8-1 1h-1a38 38 0 013 0h-1v-1l1-1h4v2h-1 2zm-1-3h-4l2-4 2 4zm-15 8l-4 8-2-8-2 9-1 1a27 27 0 013 0h-1v-1l1-6 2 7 3-7 1 5-1 1v1a26 26 0 013-1h-1v-1l-1-8zm6 5h1v1a27 27 0 010-3l-1 1h-2a78 78 0 010-3h4v-1a371 371 0 01-6 0l1 1a106 106 0 010 8h-1a38 38 0 016 0v-2l-1 1-1 1h-1l-1-1v-3h2zm10-4v-1h1a25 25 0 01-2 0v1l-2 6-3-6v-1h1a30 30 0 01-3 0h1v1l4 8 3-8zm3 4l2 2-1 1-1 1-2-1v-1h-1l1 2h2l2-1 1-2-2-2-1-1-1-1v-1l1-1 1 1 1 1v-2h-4v2l1 2 1 1z"/><path fill="url(#j)" d="M2720 367v266h484V367h-484z" transform="matrix(.81962 0 0 .81979 -2117 -190)"/><path fill="#f7a500" d="M228 443l27-4c-5 6-12 11-18 16h-9c-1-4-5-9 0-12zm-42 1c10 3 19 8 26 16 3 7 11 9 15 15l-2 1c-10-5-19-12-30-16-4-4-6-11-9-16zm-22 7c12 1 21 10 28 19-15 7-31 8-47 9 1-3 0-8 3-10 8-3 17-3 22-10l-6-8z"/><path fill="#d69c5a" d="M347 368c2 2 2 2 0 0zm-42 11c2 2 2 2 0 0z"/><path fill="none" d="M453 292h5v3l1 6-1 4h-5v-13z"/><path fill="#181829" d="M462 313l1 2-1-2z"/><path fill="#211821" d="M465 319l1 2-1-2z"/><path fill="#b57300" d="M381 442c3 3 5 6 9 5h34c5 9 15 14 18 24 1 6 7 7 11 7 2-7-1-14-4-19 8-2 17-2 25 1 11 4 22 4 33 4v-13c-13 0-23-9-34-14-5 5-8 11-10 17-8 1-20 4-23-5-2-6-1-11 3-15h10l1-2h-10c-24 2-42 12-63 10z"/><path fill="#b57300" d="M356 460c21 0 43-7 65-2-12 5-25 7-36 12l-3 3c6 1 14-1 19 3-3 8-13 4-19 5l1 3c10 1 22 1 31 7l1 3c-29 1-57-6-86-1-10 0-17 7-27 7-28 0-56 2-83-3l-31-1c-11-3-22 2-33 1-12-1-25 3-36-6 4-7 13-2 20-2 13 3 23-8 36-7 13 0 27-1 41 3 18 2 35 10 53 8 7-1 14-5 22-5 11-1 23-2 33-7 5-2 3-9 4-13 10 0 20-1 28-8zM138 344l4-1c2 2 3 10 8 6-7 6-7 16-10 24s-7 15-12 22l12-6c-2 13-16 16-26 23l1-30c0-6-1-11 2-15l10-17c2-3 4-7 9-6 1 19-11 35-17 52 7 0 8-7 11-12 7-11 10-23 11-36l-3-4z"/><path fill="#e99b00" d="M136 344h2l3 4c-1 13-4 25-11 36-3 5-4 12-11 12 6-17 18-33 17-52z"/><path fill="#846b6b" d="M222 345c2 1 2 1 0 0z"/><path fill="#623810" d="M263 426c5 1 11 0 16 3l-11 3c5 1 8 3 9 7l-8-2v6l5-4v6c11 2 12-11 20-15-2 6-6 12-10 16-5 4-12 1-17-2-3-5 2-13-4-18z"/><path fill="#bd9c00" d="M339 433l3-2 2 11c7 0 15 2 22-1v-1l15 2c3 3 5 6 9 5h34c5 9 15 14 18 24 1 6 7 7 11 7 2-7-1-14-4-19 8-2 17-2 25 1 11 4 22 4 33 4v39H116l1-22c9-1 18 0 28-2 16-1 32-2 47-9 10 5 22 10 33 6l2-1c-4-6-12-8-15-15 6-1 11-2 16-5h9l4 3c17 2 33 5 50 1 13-3 25 3 38 2 13-10 29-2 42-11-10-3-22 0-32-3-8-3-16-7-22-13l22-1m17 27c-8 7-18 8-28 8-1 4 1 11-4 13-10 5-22 6-33 7-8 0-15 4-22 5-18 2-35-6-53-8-14-4-28-3-41-3-13-1-23 10-36 7-7 0-16-5-20 2 11 9 24 5 36 6 11 1 22-4 33-1l31 1c27 5 55 3 83 3 10 0 17-7 27-7 29-5 57 2 86 1l-1-3c-9-6-21-6-31-7l-1-3c6-1 16 3 19-5-5-4-13-2-19-3l3-3c11-5 24-7 36-12-22-5-44 2-65 2z"/><path fill="#ff9c00" d="M106 104v410h409V104H106zm11 11h387v388H117V115z"/><g stroke="#000" stroke-width=".6"><path fill="#ded6d6" d="M174.266 339.082c8.392 11.19 13.988 22.38 26.577 32.172l-16.786-32.172c6.994 11.19 15.387 22.38 26.577 32.172-6.994-11.19-12.589-20.982-13.988-29.374 6.994 11.19 18.185 26.577 26.577 27.975-5.595-11.19-13.988-19.583-13.988-27.975 6.994 12.589 13.988 22.38 23.78 27.975l-16.786-26.577c6.994 8.393 13.988 18.185 22.381 23.78l-12.59-53.154 1.4-5.595c-33.571 9.791-48.958-6.994-65.743-20.982 2.797 16.785-1.4 33.57 12.589 51.755z" stroke-width=".839"/><path fill="none" d="M175.664 318.1c-2.797 6.994 1.4 15.387 4.197 22.38m5.595-27.975c-1.399 2.798-2.798 12.589 6.994 30.773m9.791-1.398c-5.595-11.19-6.993-19.584-5.595-26.578m-6.994 1.4c0 5.594 1.4 13.987 5.596 22.38" stroke-width=".839"/><path fill="none" stroke-width=".874" d="M178.113 317.05c0 5.246 1.748 12.24 6.994 20.982m22.73-22.73c-1.749 3.497-1.749 12.24 6.994 31.473m-13.988-27.976c0 6.994 3.497 13.988 6.994 22.73m3.497-19.233l5.245 20.982"/><path fill="#ded6d6" d="M185.456 365.659c-20.982-40.565-22.38-74.136-22.38-106.308-4.197 0-6.995 1.399-9.792 4.196-13.988 15.387 0 68.541 32.172 102.112z" stroke-width=".839"/></g><path fill="#d69c5a" stroke="#000" stroke-width=".874" d="M231.415 355.683c0 1.748-3.497 1.748 0 8.742 1.749 3.497-5.245 0-8.742-3.497-5.246-1.749-15.737 0-19.234 1.748-5.245 3.497-8.742 6.994-8.742 12.24 12.24 3.497 22.73 5.245 29.724-8.743 3.497 3.497 6.994 6.994 10.491 6.994l15.736 1.749V357.43"/><g fill="#ded6d6" stroke="#000" stroke-width=".6"><path d="M297.36 294.32c2.797-12.588 23.779-12.588 27.975-25.178 4.196-11.19-9.792-23.779-8.393-26.577 12.59-4.196 27.976-5.595 44.762-1.398l-13.988 72.737c-23.78-1.4-51.756-2.798-50.357-19.583z" stroke-width=".839"/><path stroke-width=".874" d="M337.225 285.578c5.246 5.245 13.988 13.988 33.221 20.982-15.736 6.994-26.227 3.497-41.963-13.988"/><path stroke-width=".874" d="M344.22 276.835c6.993 5.246 24.478 19.234 43.711 24.48-15.736 8.742-33.22-1.75-52.454-17.486"/><path stroke-width=".874" d="M342.47 264.596c41.964 19.233 31.473 24.479 78.683 29.724-6.994 6.994-17.485 8.743-29.725 6.994-17.485-3.497-27.975-5.245-34.97-13.988-3.496-5.245-10.49-3.497-19.233-10.49"/><path stroke-width=".874" d="M345.968 259.35c43.712 20.982 48.957 24.48 96.167 24.48-10.491 12.239-41.964 12.239-68.192 0-13.987-5.246-12.239-8.743-31.472-12.24"/><path stroke-width=".874" d="M344.22 252.356c45.46 13.988 68.19 19.234 113.651 17.485-10.49 10.491-61.197 15.737-87.425 3.497-12.239-5.245-10.49-5.245-31.472-8.742"/><path d="M346.317 241.167c41.964 20.981 78.332 19.583 123.093 18.184-11.19 9.791-64.344 16.785-90.921 5.595-12.59-5.595-16.785-8.393-37.767-11.19" stroke-width=".839"/><path d="M316.942 246.762c20.982-6.994 32.172-4.197 54.553 5.595 33.571 13.988 99.314 8.393 106.308-4.196-15.387 0-65.743 9.791-90.921-1.4-32.172-13.987-41.964-16.785-61.547-16.785-23.78 0-39.166 18.185-8.393 16.786z" stroke-width=".839"/></g><g fill="#8c5231" stroke="#000" stroke-width="1.049"><path d="M299.972 376.276c1.748 13.988 1.748 29.724 5.245 33.221v-33.221z"/><path d="M296.475 378.024c0 13.988 1.748 29.724 5.245 31.473v-31.473z"/><path d="M292.978 376.276c0 15.736 1.748 29.724 5.245 33.221v-33.221zm12.24-1.749c0 13.988 0 29.725 3.496 31.473v-33.221zm3.496-1.748c0 13.988 0 29.724 5.246 31.473-3.497-15.737-3.497-27.976-1.749-33.222zm5.246-8.743c0 13.988-1.749 31.473 6.994 31.473-5.246-13.988-3.497-27.976-1.749-33.221z"/><path d="M310.463 365.785c0 15.736-1.749 33.221 6.994 33.221-5.246-13.988-3.497-29.724-1.749-33.221z"/><path d="M319.205 364.036c-1.748 13.988-3.497 31.473 6.994 31.473-5.245-13.988-3.497-27.976 0-31.473z"/><path d="M324.45 358.79c-1.748 13.989-3.496 31.474 8.743 31.474-6.994-13.988-5.245-27.976-1.748-31.473z"/><path d="M324.45 355.294c1.75 13.988 3.498 31.473 13.989 29.724-8.743-12.24-8.743-26.227-6.994-29.724z"/><path d="M326.2 353.545c1.748 13.988 5.245 29.725 15.736 26.228-8.743-10.491-12.24-24.48-10.491-29.725z"/><path d="M329.696 351.797c5.246 12.24 8.743 29.724 19.234 24.479-10.491-8.743-13.988-22.73-12.24-27.976z"/><path d="M333.193 346.551c5.246 12.24 8.743 27.976 19.234 24.48-10.491-8.743-13.988-22.731-12.24-27.977z"/></g><path fill="#d69c5a" stroke="#000" stroke-width=".874" d="M355.558 350.437c5.245 15.736 10.49 31.473 20.982 45.46 0 12.24-8.743 20.983-15.737 31.474-1.748 3.497-19.233-3.497-22.73 8.742-1.749 1.749 0 6.994 3.497 8.743h22.73c3.497-1.749 8.743-13.988 17.485-24.48 1.749-1.748 8.743 0 12.24-3.496 1.748-10.491-1.749-15.737-3.497-22.73 8.742-13.989 13.988-29.725 13.988-43.713l-26.228-15.736z"/><path fill="#d69c5a" stroke="#000" stroke-width=".874" d="M357.306 355.683c10.491 19.233 22.73 13.987 33.222 0l-15.737-15.737z"/><path fill="#d69c5a" stroke="#000" stroke-width=".874" d="M292.612 378.413c59.449 0 61.197-20.982 78.682-24.479 13.988-1.748 22.73 20.982 34.97 31.473 8.743 5.245 36.718 12.24 45.46 24.479 3.498 6.994 8.743 26.227 1.75 26.227-12.24 0-13.989 5.246-13.989 8.743s0 8.742 5.246 10.49c6.994 3.497 17.485 1.749 19.233-1.748 3.497-12.24 12.24-10.491 10.491-22.73-3.497-12.24-3.497-20.982-3.497-27.976l-38.467-31.473v-27.976c15.737 6.994 13.988 36.718 41.964 33.221 15.737 0 19.234-8.742 19.234-19.233 0-13.988-33.222-36.718-38.467-61.197 0 0 0-8.743 3.497-12.24 3.497-5.245 12.24-5.245 10.49-1.748-5.245 6.994-6.993 17.485-1.748 17.485l1.749 3.497 5.245-1.749c-1.748 5.246 0 6.994 1.749 6.994 1.748 1.749 5.245-6.994 5.245-5.245l1.749 8.742 3.497-5.245c1.748 6.994 5.245 5.245 5.245 5.245-3.497-24.479-10.49-33.221-15.736-33.221-3.497 0-10.491-3.497-17.485 0-8.743 3.497-12.24 17.485 1.748 40.215 3.497 5.246 22.73 22.73 26.228 36.719 1.748 8.742-3.497 15.736-10.491 17.484-22.73 1.749-27.976-36.718-45.461-40.215-36.718-40.215-62.946-15.736-118.897-31.473-54.204 19.234-69.94 45.461-19.234 76.934z"/><path fill="#ffbd00" fill-rule="evenodd" d="M270 270a44 44 0 01-43 44 44 44 0 01-44-44 44 44 0 0144-43 44 44 0 0143 43z"/><path fill="#d69c5a" stroke="#000" stroke-width=".874" d="M255.894 320.713c0 33.221 1.748 66.442 29.724 101.412-3.497 5.246-6.994 6.994-10.49 8.743-10.492 1.748-15.737 10.49-3.498 13.988 6.994 10.49 17.485 0 27.976-19.234-13.988-24.479-1.748-33.221-8.742-48.958-3.497-8.742-10.491-17.484-20.982-26.227"/><path fill="none" stroke="#000" stroke-width=".874" d="M292.612 381.91c3.497-12.24 12.24-19.234 19.234-26.227"/><path fill="url(#k)" stroke="#000" stroke-width=".1" d="M-617-517c10-1 20 1 27 8 3 0 4 7 8 5 2 3 5 8 10 12l17 10c-1 4-8 2-10 7-2 7-15-3-16 6-10 3-10 18-4 25l5 8 5 10c1 3-4-1-8-7v2c0 2 5 4 2 4-3-1-4-4-5-4-1-2 2 3 1 6s-1-4-5-6c-2 0-3 3-3 3-3-4-3-8-3-1-5-4-1-10-6-12 1-2 0-5-2-7-3-1-6-4-6-8-4-6-2-12-1-14-2-3-1-6-2-9-4-2-4 3-8 0-3-3-3-4-4-7-2-2-3-5-3-8l-1-11 2-5 4-2 6-5" transform="translate(1291 1146) scale(1.74849)"/><path fill="#d69c5a" stroke="#000" stroke-width=".1" d="M104 30c3 0 9 2 10 5 0 1 1-5 6-6 1-1 2 4 2 5-1 10-6 12-6 17 3 18-8 21-16 27-2 1-4 4-9-4l-3-13v-5l-1-9 1-5c-2-3-4-11-2-12 1-2 5 1 7 2 1 1 2-1 4-1l7-1z" transform="matrix(1.10981 0 0 1.10982 102 221)"/><g stroke="#000" stroke-width=".1"><path fill="none" stroke-width=".675" d="M228.92 260.37c1.35-6.75 5.4-8.101 6.75-6.75 1.351 0 5.402 9.451-4.05 12.152m-25.657-8.102c-4.05-4.05-8.101-5.401-9.452-2.7l1.35 5.4"/><path fill-opacity=".7" stroke-width=".675" d="M203.263 259.02c-1.35-2.7-6.752-6.751-4.051 0m32.408 2.701c0-5.401 2.7-6.752 2.7-6.752 1.35 1.35 1.35 4.051-1.35 5.402"/><path fill="none" stroke-width=".675" d="M207.314 272.524c-2.7 5.401-5.401 9.452-5.401 13.503 0 1.35 5.4 2.7 8.101 1.35m-4.05 1.35v2.701"/><path stroke-width=".675" d="M203.263 287.377l2.7 2.701 4.051-2.7h-6.751z"/><path fill="url(#l)" d="M1258 677c2 2 5 1 9 1-3 1-5 3-6 5l-3-6z" transform="translate(-1486 -643) scale(1.35033)" stroke="none"/><path fill="url(#m)" d="M1254 677h-5c-1 2 0 3 2 5 0-2 1-4 3-5z" transform="translate(-1486 -643) scale(1.35033)" stroke="none"/><path fill="url(#n)" d="M1255 689c0-5 3-6 6-7-2 3-1 7 4 11-3-2-6-4-10-4z" transform="translate(-1486 -643) scale(1.35033)" stroke="none"/><path fill="none" stroke-width=".675" d="M205.963 260.37c-6.751 6.752-10.802 10.803 0 10.803m6.752 0c1.35 1.35 8.102 2.701 12.153 0m-25.656 4.051c-1.35 2.701-1.35 6.752 1.35 8.102-1.35 6.752-1.35 12.153 1.35 17.555l6.752 8.102c4.051 1.35 4.051-2.701 9.452-6.752"/><path stroke-width=".675" d="M201.913 296.83l4.05-1.35c4.051 1.35 9.453 2.7 10.803 0 4.051 4.05-1.35 4.05-10.803 1.35-1.35 1.35-4.05 2.7-4.05 0z"/><path fill="url(#o)" stroke-opacity=".2" stroke-width=".5" d="M1261 689c0-3 5-5 7-10" transform="translate(-1486 -643) scale(1.35033)"/><path fill="url(#p)" d="M1261 701l7-18c2-4 2-11 6-4-2 3-3 6-1 13-6 8-5 7-12 9z" transform="translate(-1486 -643) scale(1.35033)" stroke="none"/><path fill="none" stroke-width=".675" d="M204.613 257.67c9.452-4.05 17.554-5.401 24.306 1.35"/></g><path fill="none" stroke="#000" stroke-width=".874" d="M199.942 376.664c1.749-6.994 3.497-8.742 5.246-8.742m3.497 8.742c0-1.748 0-5.245 3.497-6.994"/></svg>